<svg width="5466" height="2414" viewBox="0 0 5466 2414" fill="none" xmlns="http://www.w3.org/2000/svg">
<path d="M5439.99 1035.27C5427.55 1066.9 5405.78 1093.96 5374.67 1116.44C5360.81 1126.37 5344.98 1135.26 5327.16 1143.11L5289.84 1159.58C5268.34 1170.29 5260.14 1188.07 5265.23 1212.91C5246.29 1233.3 5219.28 1245.59 5184.22 1249.77C5162.16 1252.38 5127.8 1251.73 5081.14 1247.81L4973.82 1244.28C4935.65 1247.16 4904.97 1257.48 4881.78 1275.26C4873.29 1281.79 4868.63 1292.12 4867.78 1306.24C4866.65 1321.14 4870.61 1335.13 4879.66 1348.2C4903.98 1383.23 4951.2 1395.65 5021.33 1385.45C4987.96 1424.14 4932.11 1452.12 4853.78 1469.37L4774.89 1487.02C4750 1494.08 4733.46 1503.23 4725.26 1514.47C4707.44 1539.3 4698.96 1562.44 4699.81 1583.88C4700.65 1603.75 4709.14 1618.12 4725.26 1627.01C4740.81 1635.64 4765.27 1636.42 4798.64 1629.37C4835.68 1621.52 4857.6 1606.23 4864.39 1583.49C4875.13 1580.35 4884.75 1587.01 4893.23 1603.48C4902.28 1621.26 4913.03 1629.5 4925.47 1628.19L5010.73 1625.05C5055.41 1621.92 5093.72 1613.42 5125.68 1599.56C5147.45 1590.15 5163.85 1591.98 5174.88 1605.05C5184.78 1616.82 5189.45 1635.38 5188.88 1660.74C5188.6 1684.79 5183.79 1709.63 5174.46 1735.25C5165.13 1761.65 5153.11 1782.3 5138.4 1797.2C5114.65 1821.26 5081.71 1830.93 5039.57 1826.22L4989.94 1821.91C4971.28 1821.91 4955.16 1825.96 4941.59 1834.07C4930.28 1840.86 4916.7 1855.5 4900.87 1877.99C4886.16 1899.16 4867.36 1915.24 4844.45 1926.22C4814.19 1940.86 4779.41 1945.44 4740.1 1939.95C4700.8 1934.72 4671.81 1921.65 4653.15 1900.73C4625.15 1869.36 4592.77 1853.54 4556.01 1853.28C4526.32 1853.28 4491.54 1863.74 4451.66 1884.65C4438.09 1891.97 4429.61 1907.4 4426.21 1930.93C4422.54 1956.02 4426.64 1979.03 4438.51 1999.94C4471.32 2057.72 4540.32 2068.05 4645.51 2030.92C4596.31 2102.55 4541.59 2146.48 4481.36 2162.68C4445.73 2172.1 4404.3 2171.44 4357.07 2160.72C4336.15 2156.02 4313.24 2137.33 4288.36 2104.65C4264.88 2074.32 4247.07 2059.29 4234.91 2059.55C4150.07 2061.64 4092.53 2074.58 4062.27 2098.37C4050.68 2107.26 4041.63 2118.89 4035.12 2133.27L4021.13 2172.1C4012.08 2196.93 3982.38 2214.97 3932.05 2226.21C3880.3 2237.71 3842.83 2231.96 3819.64 2208.96C3787.69 2177.06 3763.65 2154.58 3747.53 2141.51C3720.95 2120.07 3697.76 2107.26 3677.97 2103.08L3603.74 2086.61C3565.28 2079.81 3546.05 2081.51 3546.05 2091.71C3546.05 2140.85 3543.36 2170.79 3537.99 2181.51C3529.22 2199.28 3505.33 2209.22 3466.3 2211.31C3450.47 2212.09 3424.03 2207.39 3386.98 2197.19C3347.39 2186.21 3307.94 2172.1 3268.64 2154.84C3164.86 2109.35 3106.74 2062.56 3094.3 2014.45C3087.51 1988.83 3094.02 1965.04 3113.81 1943.08L3135.02 1920.73C3141.53 1913.15 3144.21 1906.48 3143.08 1900.73C3136.86 1865.44 3114.24 1841.39 3075.21 1828.58C3032.23 1820.47 3005.08 1812.37 2993.77 1804.26C2978.5 1793.28 2962.52 1768.05 2945.84 1728.58C2931.13 1693.55 2923.08 1667.4 2921.66 1650.15C2920.81 1641.52 2913.46 1636.82 2899.6 1636.03C2883.49 1634.73 2872.88 1630.15 2867.79 1622.31C2859.02 1608.19 2851.39 1588.71 2844.89 1563.88C2837.82 1536.95 2838.52 1524.27 2847.01 1525.84L2880.52 1530.55C2893.52 1530.02 2899.75 1523.88 2899.18 1512.11C2898.05 1489.89 2893.1 1473.55 2884.33 1463.1L2849.13 1433.69C2829.9 1418 2807.13 1408.98 2780.83 1406.63C2758.78 1404.54 2745.49 1399.44 2740.96 1391.33C2732.2 1375.13 2722.02 1352.9 2710.42 1324.67C2694.3 1285.45 2685.11 1256.7 2682.85 1238.4C2674.93 1176.18 2675.07 1115.66 2683.27 1056.83C2688.08 1019.97 2699.96 964.68 2718.91 890.956C2720.6 884.159 2730.5 902.851 2748.6 947.033C2768.96 996.966 2783.95 1023.11 2793.56 1025.46L2844.04 1028.6C2865.81 1023.89 2881.22 1010.3 2890.27 987.816C2903 956.183 2894.09 911.609 2863.55 854.095L2825.8 783.901C2812.22 756.973 2803.88 734.098 2800.77 715.275C2797.09 692.792 2800.49 671.355 2810.95 650.963C2820.85 631.356 2835.69 615.67 2855.49 603.906C2901.58 576.979 2949.66 580.246 2999.71 613.71C3021.2 628.088 3042.83 616.977 3064.61 580.377C3084.69 546.914 3092.89 522.863 3089.21 508.222C3086.67 496.981 3080.16 482.341 3069.7 464.302C3060.37 448.355 3055.7 438.813 3055.7 435.675C3056.55 413.977 3072.24 388.487 3102.78 359.207C3135.02 328.358 3162.45 316.986 3185.07 325.091C3208.83 333.456 3241.91 349.926 3284.33 374.501C3325.9 398.291 3353.33 416.33 3366.62 428.617C3381.04 441.95 3407.63 449.139 3446.37 450.185C3486.24 451.492 3506.18 443.257 3506.18 425.48C3506.18 403.258 3510.84 387.834 3520.17 379.207C3531.2 368.488 3548.03 370.449 3570.65 385.089C3582.53 392.67 3595.25 394.37 3608.83 390.187C3620.7 386.527 3631.02 379.207 3639.79 368.227C3648.27 357.508 3652.37 346.92 3652.09 336.463C3651.81 324.96 3645.87 316.594 3634.28 311.365C3604.87 298.294 3586.91 275.942 3580.41 244.309C3572.77 207.185 3590.3 175.16 3633 148.233C3672.31 123.136 3712.04 104.574 3752.2 92.5483C3775.67 85.4897 3805.64 79.4768 3842.12 74.5096C3850.32 87.8426 3860.65 99.7376 3873.09 110.195C3886.66 121.698 3897.83 126.665 3906.6 125.096C3912.82 124.051 3934.31 105.62 3971.07 69.8039C4014.9 34.5108 4059.02 16.8643 4103.42 16.8643C4161.95 16.8643 4206.63 23.9229 4237.45 38.0401C4269.97 52.9416 4269.97 68.8889 4237.45 85.8818C4139.05 138.429 4092.67 178.297 4098.33 205.486C4101.72 223.002 4115.15 242.348 4138.62 263.524C4160.11 282.608 4177.36 293.196 4190.37 295.287C4199.14 296.595 4215.11 290.843 4238.3 278.033C4266.02 262.609 4281.99 254.243 4286.23 252.936C4294.72 250.321 4299.1 251.89 4299.38 257.642C4300.52 268.883 4302.35 276.464 4304.9 280.386C4313.67 293.719 4327.95 302.869 4347.74 307.836C4367.54 312.803 4383.94 310.973 4396.94 302.346C4402.32 298.947 4406.7 291.366 4410.09 279.602C4413.49 264.7 4416.6 253.197 4419.43 245.093C4430.45 213.198 4452.79 193.199 4486.45 185.095C4520.38 176.729 4570.15 173.853 4635.76 176.467C4704.76 179.343 4749.86 187.578 4771.07 201.173C4804.72 222.871 4818.43 242.479 4812.21 259.994C4805.43 278.817 4776.44 291.366 4725.26 297.64C4690.76 301.823 4661.07 309.928 4636.18 321.953C4606.77 336.071 4597.44 350.972 4608.18 366.658C4614.41 375.808 4630.52 380.514 4656.54 380.775C4681.43 380.775 4696.84 386.788 4702.78 398.814C4706.17 405.35 4701.22 412.67 4687.93 420.774C4669.27 432.015 4658.52 439.336 4655.69 442.734C4647.21 452.668 4643.25 464.041 4643.82 476.851C4644.66 490.707 4651.87 497.634 4665.45 497.634C4678.17 497.634 4689.91 494.759 4700.65 489.007L4730.35 470.184C4740.81 474.89 4746.32 480.642 4746.89 487.439C4747.46 491.099 4745.62 498.549 4741.38 509.791C4732.33 535.15 4736 558.678 4752.4 580.377C4768.24 601.292 4784.22 613.71 4800.34 617.631C4823.52 623.121 4849.12 613.056 4877.11 587.436L4938.19 532.535C4957.99 516.327 4977.36 504.301 4996.31 496.458C5037.87 479.204 5104.19 475.021 5195.24 483.909C5213.34 485.739 5229.18 492.929 5242.75 505.477C5254.91 516.457 5263.25 529.79 5267.78 545.476C5272.3 560.901 5271.88 574.234 5266.51 585.475C5260.85 597.762 5250.39 604.559 5235.12 605.867L5158.76 603.906L5084.96 597.632C5033.77 595.802 5009.17 613.056 5011.15 649.395C4913.87 674.231 4852.51 724.294 4827.06 799.586C4816.88 829.389 4813.91 860.238 4818.15 892.133C4821.83 921.151 4830.59 946.118 4844.45 967.033C4860 990.038 4881.35 1007.03 4908.5 1018.01C4933.67 1027.95 4960.53 1031.61 4989.09 1028.99C5017.09 1026.38 5041.69 1018.27 5062.9 1004.68C5085.24 990.3 5099.95 972 5107.02 949.778C5115.22 923.896 5132.32 909.518 5158.34 906.642C5174.74 904.812 5197.08 908.08 5225.36 916.446C5229.04 917.491 5238.51 927.164 5253.78 945.465C5267.35 961.673 5287.71 971.085 5314.86 973.699L5435.33 987.816C5450.03 989.646 5451.59 1005.46 5439.99 1035.27Z" fill="#664497"/>
<path d="M4035.12 2257.58C4048.41 2244.51 4059.44 2237.06 4068.21 2235.23C4069.9 2234.97 4080.79 2240.59 4100.87 2252.09C4122.08 2264.11 4143.99 2269.74 4166.62 2268.95L4212 2261.5C4230.95 2257.84 4246.08 2257.58 4257.39 2260.72C4264.74 2262.81 4274.78 2269.21 4287.51 2279.93C4299.67 2290.13 4308.72 2299.41 4314.65 2307.77C4325.12 2322.41 4322.29 2340.06 4306.17 2360.71C4291.18 2379.8 4265.45 2393 4228.97 2400.32L4137.35 2405.81C4093.8 2403.46 4060.15 2392.08 4036.39 2371.69C4011.51 2350.52 4003.17 2323.85 4011.37 2291.7C4013.63 2282.02 4021.55 2270.65 4035.12 2257.58Z" fill="#664497"/>
<path d="M3533.32 42.3516C3554.81 42.3516 3565.7 48.4952 3565.98 60.7824C3566.27 67.5796 3561.6 80.259 3551.99 98.8205C3546.33 110.062 3537.71 121.434 3526.11 132.937L3493.87 161.956C3487.09 167.707 3468.85 188.753 3439.16 225.091C3419.36 248.881 3399.85 262.345 3380.62 265.482L3305.96 263.522C3289 256.201 3277.83 239.993 3272.45 214.896C3269.91 204.7 3269.06 189.798 3269.91 170.191C3270.76 146.924 3274.43 133.199 3280.94 129.016C3289.7 123.526 3301.72 119.996 3316.99 118.428C3335.94 116.075 3348.81 113.722 3355.59 111.369L3386.98 87.8404C3401.69 74.5075 3421.48 64.3117 3446.37 57.2531C3481.43 47.3187 3510.42 42.3516 3533.32 42.3516Z" fill="#664497"/>
<path d="M5035.33 1927L5047.21 1921.12C5049.75 1921.12 5053.57 1923.21 5058.66 1927.39C5061.49 1929.75 5068.27 1932.75 5079.02 1936.41C5088.92 1940.07 5095.28 1943.47 5098.11 1946.61C5110.27 1960.73 5110.13 1979.16 5097.68 2001.9C5086.37 2022.03 5070.82 2041.9 5051.02 2061.51C5030.1 2082.68 5008.18 2099.68 4985.28 2112.49C4967.46 2122.42 4945.26 2126.34 4918.68 2124.25C4895.78 2122.42 4872.73 2116.54 4849.54 2106.6C4839.08 2102.16 4829.04 2094.58 4819.42 2083.86C4807.26 2070.27 4802.74 2057.19 4805.85 2044.65C4811.79 2021.64 4833.28 2005.3 4870.32 1995.63C4890.97 1990.14 4923.06 1984.26 4966.61 1977.98C4981.32 1974.84 4994.04 1967.65 5004.79 1956.41C5021.47 1939.42 5031.65 1929.62 5035.33 1927Z" fill="#664497"/>
<path d="M5420.91 1320.74C5430.8 1324.66 5434.2 1335.12 5431.09 1352.12L5419.21 1390.15C5414.12 1405.05 5401.25 1419.04 5380.61 1432.11C5356.01 1445.71 5338.19 1456.69 5327.16 1465.05C5301.99 1484.66 5270.75 1499.04 5233.42 1508.19C5186.76 1519.43 5158.76 1510.41 5149.43 1481.13C5142.65 1459.43 5148.58 1429.11 5167.25 1390.15C5183.93 1355.38 5199.91 1332.77 5215.18 1322.31C5221.4 1318.13 5231.02 1316.3 5244.02 1316.82L5272.44 1321.14C5293.65 1328.19 5321.22 1328.72 5355.16 1322.7L5420.91 1320.74Z" fill="#664497"/>
<path d="M5417.51 718.411C5427.69 721.025 5433.77 728.737 5435.75 741.547C5437.45 752.789 5435.61 762.331 5430.24 770.174L5423.03 776.448L5415.39 782.723C5414.54 784.03 5413.98 786.513 5413.69 790.173L5411.15 796.84C5404.36 804.421 5392.49 811.088 5375.52 816.839C5358.55 822.852 5345.4 824.551 5336.07 821.937C5315.14 816.447 5304.4 805.075 5303.83 787.82C5303.27 777.625 5306.94 763.769 5314.86 746.253C5319.39 735.534 5333.24 727.038 5356.43 720.764L5417.51 718.411Z" fill="#664497"/>
<path d="M4355.37 622.337C4372.91 593.318 4392.98 570.312 4415.61 553.319C4445.3 531.098 4461.42 539.333 4463.96 578.024C4466.23 611.487 4493.8 638.545 4546.68 659.198L4601.82 680.374C4619.07 688.479 4628.4 697.367 4629.82 707.04C4631.8 721.68 4627.13 734.098 4615.82 744.294C4608.75 750.83 4595.6 758.411 4576.37 767.038C4555.73 776.45 4542.01 783.77 4535.23 788.999C4522.5 798.671 4516.28 810.174 4516.56 823.507C4516.56 833.703 4520.24 843.638 4527.59 853.31L4547.53 876.055C4562.51 893.309 4560.82 912.132 4542.44 932.524C4528.3 948.21 4529.71 959.19 4546.68 965.464C4558.27 969.647 4581.6 972.523 4616.67 974.091L4695.14 979.581C4719.18 984.026 4729.21 992.391 4725.26 1004.68L4707.44 1053.3C4699.81 1075 4695.56 1092.91 4694.72 1107.03C4691.6 1149.12 4714.93 1175.39 4764.7 1185.85C4798.07 1192.91 4808.68 1208.86 4796.52 1233.69L4749.43 1297.61C4740.67 1310.16 4732.18 1325.58 4723.98 1343.88L4705.74 1385.84C4691.32 1414.86 4668.84 1432.77 4638.3 1439.57C4620.77 1443.49 4606.91 1451.99 4596.73 1465.06C4587.68 1477.08 4584.15 1488.72 4586.13 1499.96C4587.54 1507.8 4594.75 1520.48 4607.76 1538C4619.64 1554.2 4625.43 1567.01 4625.15 1576.43C4625.15 1597.86 4609.31 1617.08 4577.64 1634.07C4538.9 1654.2 4483.62 1665.84 4411.79 1668.97C4391.71 1670.02 4385.21 1683.87 4392.28 1710.54L4404.15 1748.97C4408.96 1765.18 4411.51 1778.77 4411.79 1789.75C4412.07 1804.13 4395.39 1822.69 4361.74 1845.44C4326.95 1868.44 4308.86 1888.84 4307.44 1906.61C4304.61 1938.77 4294.29 1957.33 4276.48 1962.3L4248.48 1963.87L4215.82 1963.08L4100.02 1966.61C4059.02 1971.06 4034.84 1983.6 4027.49 2004.26C4020.13 2025.17 3995.25 2040.33 3952.83 2049.75C3909.28 2059.42 3877.75 2054.58 3858.24 2035.24C3840.71 2017.98 3819.36 2005.17 3794.19 1996.81L3732.68 1983.08C3729.29 1982.56 3709.64 1971.84 3673.72 1950.93C3643.47 1933.67 3628.34 1928.97 3628.34 1936.81C3628.34 1975.24 3620.14 1999.68 3603.74 2010.14C3583.94 2022.43 3544.07 2022.82 3484.12 2011.32C3469.98 1992.75 3452.16 1978.9 3430.67 1969.75C3420.21 1965.04 3402.11 1959.68 3376.38 1953.67C3355.17 1948.7 3340.04 1942.82 3330.99 1936.02C3317.7 1926.35 3309.22 1911.19 3305.54 1890.53C3295.64 1831.19 3261.28 1796.81 3202.46 1787.4L3133.32 1779.17C3108.44 1774.72 3090.48 1766.22 3079.45 1753.68C3066.45 1738.77 3056.55 1723.61 3049.76 1708.19C3038.45 1682.57 3041.7 1665.44 3059.52 1656.82C3081.57 1646.36 3086.24 1629.63 3073.52 1606.62L3056.97 1576.82C3051.6 1564.53 3050.33 1553.68 3053.15 1544.27L3071.82 1498C3081.15 1474.99 3085.67 1458.91 3085.39 1449.76C3084.26 1427.02 3081.15 1411.07 3076.06 1401.92C3069.84 1391.2 3058.95 1385.32 3043.4 1384.28C2973.83 1379.31 2935.8 1357.09 2929.3 1317.61L2925.48 1266.63C2922.93 1246.76 2915.58 1231.21 2903.42 1219.97C2877.4 1196.18 2882.78 1158.92 2919.54 1108.2C2932.83 1089.38 2947.68 1073.04 2964.08 1059.19C2979.91 1045.85 2990.66 1039.84 2996.32 1041.15C3037.88 1052.13 3065.03 1041.54 3077.76 1009.38C3083.41 995.528 3086.38 972.13 3086.66 939.19L3087.51 852.526C3091.75 783.247 3118.05 749.523 3166.41 751.353C3192.43 752.398 3212.93 739.588 3227.92 712.922C3243.47 685.472 3249.12 650.048 3244.88 606.651C3244.03 596.455 3238.94 584.168 3229.61 569.789C3221.13 555.934 3216.89 547.96 3216.89 545.868C3217.17 530.444 3258.03 522.863 3339.47 523.124C3419.78 523.124 3466.02 528.745 3478.18 539.986C3503.06 562.992 3528.8 574.495 3555.38 574.495C3581.96 574.495 3595.25 562.077 3595.25 537.241C3595.25 521.294 3607.98 509.66 3633.43 502.34C3658.88 495.282 3683.2 496.327 3706.39 505.477C3757.85 526.13 3807.2 516.719 3854.42 477.243L3904.48 429.401C3922.29 412.147 3936.71 401.951 3947.74 398.814C3987.05 388.095 4021.27 396.592 4050.39 424.303C4076.13 448.878 4102.28 493.452 4128.86 558.025C4148.38 605.867 4185.56 637.63 4240.42 653.316C4264.74 660.113 4286.94 661.159 4307.02 656.453C4328.79 651.225 4344.91 639.853 4355.37 622.337Z" fill="#51308E"/>
<path d="M4122.93 2327.38C4137.91 2320.32 4154.74 2316.53 4173.4 2316.01L4233.21 2307.77C4259.23 2304.38 4274.5 2305.81 4279.02 2312.09C4292.6 2331.43 4284.54 2349.73 4254.85 2366.99C4225.72 2383.72 4191.64 2391.04 4152.62 2388.95C4128.02 2387.38 4110.77 2382.81 4100.87 2375.22C4092.1 2368.43 4090.12 2360.32 4094.93 2350.91C4099.17 2342.02 4108.51 2334.18 4122.93 2327.38Z" fill="#51308E"/>
<path d="M4999.7 2079.15C4981.6 2089.09 4965.76 2093.66 4952.19 2092.88C4941.73 2092.35 4925.04 2087.13 4902.14 2077.19L4882.2 2071.31C4877.11 2068.17 4876.12 2060.59 4879.23 2048.57C4885.17 2026.08 4901.57 2012.88 4928.44 2008.96L5009.88 2000.72C5048.34 1992.1 5066.72 1997.19 5065.02 2016.02C5063.04 2034.84 5041.27 2055.89 4999.7 2079.15Z" fill="#51308E"/>
<path d="M5195.67 1413.29C5196.52 1399.7 5204.43 1387.93 5219.42 1378C5224.23 1374.6 5236.67 1374.73 5256.75 1378.39L5293.23 1381.14C5321.79 1367.8 5345.26 1364.54 5363.64 1371.33C5379.48 1377.08 5385.42 1385.71 5381.46 1397.21C5376.65 1411.07 5365.62 1419.7 5348.37 1423.1C5325.18 1427.54 5309.35 1433.16 5300.86 1439.96C5284.74 1452.77 5267.78 1459.17 5249.96 1459.17C5234.41 1459.17 5221.26 1454.47 5210.51 1445.06C5200.05 1435.91 5195.1 1425.32 5195.67 1413.29Z" fill="#51308E"/>
<path d="M5388.24 752.92C5393.62 754.489 5396.73 758.41 5397.58 764.685C5398.42 770.698 5397.58 775.796 5395.03 779.978L5391.21 783.116L5387.4 786.253L5386.12 790.174L5384.85 793.704C5381.46 797.625 5375.38 801.154 5366.61 804.291L5345.83 806.644C5335.08 803.769 5329.57 797.886 5329.28 788.998C5329 783.508 5330.98 776.318 5335.22 767.43C5337.48 761.94 5344.7 757.626 5356.86 754.489L5388.24 752.92Z" fill="#51308E"/>
<path d="M4424.94 1528.58C4386.48 1609.37 4332.75 1681.26 4263.75 1744.26C4194.47 1807.27 4115.86 1856.16 4027.91 1890.93C3936.85 1927 3842.83 1945.04 3745.83 1945.04C3648.84 1945.04 3555.94 1927.14 3467.15 1891.32C3381.75 1856.81 3305.82 1808.05 3239.37 1745.05C3173.48 1682.31 3122.3 1610.54 3085.82 1529.76C3048.21 1446.1 3029.4 1358.92 3029.4 1268.2C3029.4 1072.39 3094.02 912.786 3223.25 789.391C3354.74 663.904 3526.96 601.161 3739.9 601.161C3837.17 601.161 3931.62 618.546 4023.25 653.316C4112.04 687.041 4191.22 734.36 4260.78 795.273C4330.91 856.971 4385.35 927.426 4424.09 1006.64C4464.53 1089.77 4484.75 1176.44 4484.75 1266.63C4484.75 1357.09 4464.81 1444.4 4424.94 1528.58Z" fill="#3E4E57"/>
<path d="M3558.35 1765.05C3469.27 1764.52 3394.48 1754.07 3333.96 1733.67C3269.2 1711.98 3208.83 1675.24 3152.84 1623.48C3224.66 1612.5 3374.4 1603.35 3602.04 1596.03C3831.38 1588.97 3990.16 1588.58 4078.39 1594.85C4013.35 1648.19 3937.7 1689.49 3851.45 1718.77C3759.55 1750.14 3661.85 1765.57 3558.35 1765.05Z" fill="#ED8599"/>
<path d="M4369.8 820.366C4397.23 861.934 4415.89 913.305 4425.79 974.479C4435.97 1037.22 4435.12 1100.88 4423.24 1165.45C4394.97 1319.18 4317.48 1431.98 4190.8 1503.88C4132.54 1536.82 4071.88 1553.94 4008.82 1555.25C3949.44 1556.55 3892.74 1543.74 3838.73 1516.82C3785.85 1490.67 3741.31 1453.81 3705.11 1406.23C3667.79 1357.08 3643.33 1301.66 3631.73 1239.96C3698.47 1195.52 3779.2 1144.67 3873.94 1087.42C4063.4 973.172 4228.69 884.155 4369.8 820.366Z" fill="white"/>
<path d="M3221.13 1075.26L3413.28 1249.38C3416.39 1284.67 3408.47 1324.54 3389.53 1368.98C3370.3 1414.47 3344.71 1451.72 3312.75 1480.74C3276.84 1513.42 3239.51 1528.84 3200.77 1527.01C3156.09 1524.92 3113.25 1499.3 3072.24 1450.15C3008.05 1373.03 2970.58 1275.52 2959.84 1157.61C2950.22 1048.34 2964.5 949.515 3002.68 861.151C3017.1 883.373 3089.92 954.743 3221.13 1075.26Z" fill="white"/>
<path d="M3978.71 1592.5C3981.25 1608.19 3980.12 1640.08 3975.31 1688.18C3970.51 1736.03 3965.7 1763.74 3960.89 1771.32C3943.64 1758.51 3925.26 1734.2 3905.75 1698.38C3884.54 1660.21 3871.53 1624.92 3866.72 1592.5H3978.71Z" fill="white"/>
<path d="M3298.33 1612.11L3300.03 1690.93C3300.03 1725.7 3299.04 1748.31 3297.06 1758.77C3276.98 1740.99 3256.76 1715.11 3236.4 1681.13C3219.43 1652.63 3209.39 1631.98 3206.28 1619.17L3298.33 1612.11Z" fill="white"/>
<path d="M3412.43 131.762C3426.85 131.762 3438.87 138.298 3448.49 151.369C3457.82 164.18 3458.95 173.722 3451.88 179.996L3417.95 219.211C3405.5 234.112 3393.2 242.609 3381.04 244.7L3334.38 243.131C3323.64 238.687 3316.57 228.622 3313.18 212.936C3307.52 185.748 3316.43 164.833 3339.9 150.193C3359.13 137.906 3383.31 131.762 3412.43 131.762Z" fill="#51308E"/>
<path d="M5084.96 1058.01C5132.47 1045.2 5164.42 1033.57 5180.82 1023.11C5196.37 1013.18 5207.97 1008.99 5215.6 1010.56C5221.83 1011.61 5226.92 1016.84 5230.87 1026.25L5241.9 1056.84C5247.84 1070.17 5255.62 1080.63 5265.23 1088.21C5275.98 1096.57 5275.13 1109.38 5262.69 1126.64C5251.66 1141.8 5234.97 1156.57 5212.63 1170.95C5190.01 1185.59 5170.5 1193.96 5154.1 1196.05C5135.72 1198.66 5126.95 1191.99 5127.8 1176.05C5128.65 1160.88 5120.16 1151.08 5102.35 1146.64L5047.63 1143.5L5001.82 1139.19C4991.92 1134.48 4992.91 1124.02 5004.79 1107.81C5022.04 1084.55 5048.76 1067.95 5084.96 1058.01Z" fill="#51308E"/>
<path d="M4929.71 1688.18C4970.43 1699.43 5009.45 1705.57 5046.78 1706.61C5101.36 1707.92 5115.92 1723.22 5090.47 1752.5C5080.86 1763.48 5067.43 1773.93 5050.18 1783.87C5033.49 1793.54 5019.49 1799.16 5008.18 1800.73C4999.98 1801.78 4986.83 1801.78 4968.73 1800.73C4950.07 1799.68 4935.79 1799.68 4925.89 1800.73C4890.54 1804.65 4860.43 1824.26 4835.54 1859.55C4799.91 1910.01 4776.72 1922.29 4765.98 1896.41C4763.15 1889.35 4760.46 1876.41 4757.92 1857.59C4755.66 1840.6 4753.39 1830.4 4751.13 1827C4743.78 1816.81 4726.11 1804.78 4698.11 1790.93C4677.18 1780.73 4667.85 1767.79 4670.11 1752.1C4675.49 1717.07 4690.33 1698.77 4714.65 1697.2C4723.14 1696.68 4731.76 1698.25 4740.53 1701.91C4748.16 1705.57 4752.97 1709.23 4754.95 1712.89C4762.02 1725.96 4780.97 1730.67 4811.79 1727.01C4842.61 1723.08 4865.8 1713.02 4881.35 1696.81C4888.71 1689.23 4896.06 1685.05 4903.41 1684.26L4929.71 1688.18Z" fill="#51308E"/>
<path d="M4040.64 316.853C4008.68 333.062 3982.81 329.925 3963.01 307.442C3955.94 299.337 3938.55 298.684 3910.84 305.481C3881.71 312.801 3860.36 311.232 3846.79 300.775C3827.84 286.658 3805.36 277.377 3779.34 272.933C3754.18 268.75 3737.92 270.449 3730.56 278.031C3723.49 285.612 3719.96 283.651 3719.96 272.148C3719.96 260.646 3723.78 247.835 3731.41 233.718C3754.32 192.412 3788.11 180.125 3832.79 196.857L3891.75 202.347C3916.64 199.732 3941.52 187.053 3966.41 164.308C3986.77 145.486 4010.24 132.806 4036.82 126.27C4062.55 120.257 4075.42 123.133 4075.42 134.898C4075.42 142.479 4069.06 155.028 4056.33 172.544C4043.32 189.798 4036.82 202.216 4036.82 209.797L4033.43 243.13C4035.4 256.201 4048.27 268.881 4072.03 281.168C4075.98 283.259 4074.71 288.226 4068.21 296.069C4061.14 303.912 4051.95 310.84 4040.64 316.853Z" fill="#51308E"/>
<path d="M3921.87 1690.93C3798.01 1665.57 3688.43 1652.76 3593.13 1652.5C3475.21 1651.98 3367.75 1670.15 3270.76 1707.01C3229.47 1686.09 3190.16 1658.25 3152.84 1623.48C3224.66 1612.5 3374.4 1603.35 3602.04 1596.03C3831.38 1588.97 3990.16 1588.58 4078.39 1594.85C4033.14 1632.5 3980.97 1664.53 3921.87 1690.93Z" fill="#CE7486"/>
<path d="M4187.83 1163.89C4198.01 1089.9 4178.78 1015.39 4130.14 940.363C4216.67 893.305 4296.56 853.306 4369.8 820.366C4397.51 862.195 4416.6 913.566 4427.06 974.479C4437.81 1037.48 4437.67 1101.14 4426.64 1165.45C4400.34 1319.44 4323.84 1432.24 4197.16 1503.88C4103.56 1557.21 4007.41 1570.41 3908.72 1543.48C3814.27 1517.86 3737.63 1461.65 3678.81 1374.86C3750.92 1414.34 3826 1429.5 3904.05 1420.35C3977.29 1411.72 4040.35 1384.01 4093.23 1337.21C4147.25 1289.11 4178.78 1231.33 4187.83 1163.89Z" fill="#DBDCDC"/>
<path d="M4014.76 1890.14C3928.23 1922.3 3838.59 1938.38 3745.83 1938.38C3622.82 1938.38 3507.31 1910.4 3399.28 1854.46C3664.25 1911.45 3896.28 1881.78 4095.36 1765.44C4266.44 1665.31 4393.41 1516.04 4476.27 1317.61C4469.2 1402.58 4444.74 1483.49 4402.88 1560.35C4362.45 1634.86 4308.72 1700.61 4241.7 1757.6C4174.39 1814.59 4098.75 1858.77 4014.76 1890.14Z" fill="#27333A"/>
<path d="M3214.34 1529.76C3157.22 1529.76 3103.91 1493.42 3054.43 1420.74C3012.29 1359.3 2987.97 1300.48 2981.47 1244.27C2996.74 1274.34 3021.62 1299.04 3056.12 1318.39C3090.62 1337.73 3126.82 1347.28 3164.71 1347.02C3206 1347.02 3241.77 1334.99 3272.03 1310.94C3306.25 1284.01 3329.72 1244.01 3342.44 1190.94C3381.47 1226.23 3405.08 1245.71 3413.28 1249.37C3418.09 1305.32 3400.7 1364.79 3361.11 1427.8C3318.12 1495.77 3269.2 1529.76 3214.34 1529.76Z" fill="#DBDCDC"/>
<path d="M3298.33 1612.11L3300.03 1690.93C3300.03 1725.7 3299.04 1748.31 3297.06 1758.77C3276.98 1740.99 3256.76 1715.11 3236.4 1681.13C3219.43 1652.63 3209.39 1631.98 3206.28 1619.17L3298.33 1612.11Z" fill="white"/>
<path d="M3978.71 1592.5C3981.25 1608.19 3980.12 1640.08 3975.31 1688.18C3970.51 1736.03 3965.7 1763.74 3960.89 1771.32C3943.64 1758.51 3925.26 1734.2 3905.75 1698.38C3884.54 1660.21 3871.53 1624.92 3866.72 1592.5H3978.71Z" fill="white"/>
<path d="M3298.33 1612.11L3300.03 1650.15C3285.89 1642.04 3271.61 1638.64 3257.18 1639.95C3244.18 1641.26 3232.72 1646.09 3222.83 1654.46L3206.28 1619.17L3298.33 1612.11Z" fill="#DBDCDC"/>
<path d="M3978.71 1592.5L3979.56 1631.72C3963.72 1622.57 3945.62 1618.38 3925.26 1619.17C3904.33 1619.69 3888.07 1625.31 3876.48 1636.03C3872.8 1624 3869.55 1609.49 3866.72 1592.5H3978.71Z" fill="#DBDCDC"/>
<path d="M5425.57 1048.6C5441.97 1013.83 5444.94 995.788 5434.48 994.481L5314.01 980.756C5293.09 978.664 5276.12 973.044 5263.11 963.893C5255.76 958.665 5247.84 950.299 5239.36 938.796C5233.14 929.385 5227.76 924.025 5223.24 922.718C5205.71 917.751 5191 914.745 5179.13 913.699C5163.29 912.13 5150.28 913.83 5140.1 918.797C5127.94 924.548 5119.32 935.528 5114.23 951.737C5107.16 973.697 5093.02 992.128 5071.81 1007.03C5050.88 1022.19 5025.71 1031.6 4996.31 1035.26C4967.18 1038.92 4939.18 1036.05 4912.32 1026.64C4880.65 1015.66 4856.04 996.964 4838.51 970.56C4818.72 941.018 4808.82 905.987 4808.82 865.465C4808.82 836.708 4814.48 809.127 4825.79 782.722C4837.95 753.965 4856.19 728.868 4880.51 707.43C4912.46 679.196 4953.6 658.281 5003.94 644.687C5003.94 627.694 5009.03 614.623 5019.21 605.473C5029.96 596.322 5046.36 591.355 5068.42 590.571L5138.83 594.885L5234.27 599.198C5245.58 597.891 5253.78 593.055 5258.87 584.689C5261.98 579.199 5263.54 572.663 5263.54 565.082C5263.54 549.134 5257.74 533.841 5246.14 519.201C5232.85 502.208 5215.75 492.665 5194.82 490.574C5110.27 482.47 5048.05 485.345 5008.18 499.201C4981.03 508.874 4945.12 534.364 4900.44 575.669L4882.2 592.14C4856.19 616.453 4831.44 627.563 4807.97 625.472C4786.76 623.642 4766.26 610.048 4746.47 584.689C4734.31 568.742 4728.23 552.794 4728.23 536.847C4728.23 529.266 4730.63 518.547 4735.44 504.691L4739.68 489.397C4739.68 485.215 4736.71 481.424 4730.77 478.025L4721.44 484.3L4697.69 498.417C4687.79 502.6 4677.04 504.691 4665.45 504.691C4653.29 504.691 4644.8 499.985 4640 490.574C4636.04 483.254 4635.19 474.235 4637.45 463.516C4639.71 453.582 4643.82 445.216 4649.75 438.419C4654.56 432.929 4663.47 426.524 4676.48 419.203L4692.17 409.4C4695.85 406.263 4697.12 403.648 4695.99 401.557C4693.16 395.544 4688.07 391.623 4680.72 389.793L4654 387.44L4625.58 385.479C4615.11 382.865 4607.19 377.767 4601.82 370.185C4595.6 361.297 4594.89 352.147 4599.7 342.735C4606.49 329.664 4623.88 318.161 4651.87 308.226C4674.78 299.861 4698.96 294.109 4724.41 290.972C4748.16 288.096 4767.11 283.652 4781.25 277.639C4795.67 271.626 4803.87 264.567 4805.85 256.463C4809.53 242.084 4796.52 225.484 4766.83 206.661C4746.75 193.851 4702.63 186.138 4634.48 183.524C4569.73 180.91 4520.95 183.655 4488.14 191.759C4465.52 196.988 4448.69 207.706 4437.67 223.915C4431.44 233.327 4425.65 248.359 4420.27 269.012L4413.49 292.148C4410.38 299.207 4406.28 304.436 4401.19 307.834C4387.61 316.984 4370.79 319.468 4350.71 315.285C4339.68 313.455 4329.5 309.664 4320.17 303.913C4310.55 298.161 4303.34 291.495 4298.54 283.913C4295.14 278.946 4293.02 271.365 4292.17 261.169V258.424L4288.36 259.208C4282.98 260.777 4272.1 266.397 4255.69 276.07L4219.22 295.286C4206.49 301.037 4196.45 303.259 4189.1 301.952C4174.39 299.861 4155.87 288.75 4133.53 268.62C4108.93 246.659 4094.79 226.137 4091.11 207.053C4084.89 175.943 4132.54 133.591 4234.06 79.9977C4248.77 72.1548 4255.13 65.2269 4253.15 59.214C4250.6 50.3253 4235.48 42.3517 4207.76 35.2931C4178.07 27.7116 4143.29 23.9209 4103.42 23.9209C4070.05 23.9209 4036.96 34.1167 4004.16 54.5082C3985.78 66.0111 3963.72 84.1805 3937.99 109.016L3919.75 125.487L3908.29 131.761C3897.83 133.852 3885.39 129.147 3870.97 117.644C3858.52 107.971 3847.64 96.0756 3838.31 81.9584C3805.22 86.4027 3776.8 92.2849 3753.05 99.6049C3714.02 111.631 3675.42 129.669 3637.25 153.721C3621.69 163.394 3609.53 174.374 3600.77 186.661C3590.59 201.04 3585.78 215.811 3586.34 230.974C3586.91 246.137 3591.86 260.646 3601.19 274.502C3610.52 288.619 3622.54 298.815 3637.25 305.089C3651.67 311.625 3659.16 322.082 3659.73 336.461V337.245C3659.73 347.702 3656.05 358.159 3648.7 368.617C3641.35 379.074 3632.01 387.178 3620.7 392.93C3601.47 402.341 3583.38 401.557 3566.41 390.577C3550.29 380.381 3537.99 377.113 3529.51 380.773C3518.76 386.263 3513.39 401.165 3513.39 425.478C3513.39 436.981 3506.18 445.608 3491.75 451.359C3474.5 457.895 3451.32 459.202 3422.19 455.281C3393.06 451.359 3372.84 444.17 3361.53 433.713C3348.52 421.687 3321.66 403.91 3280.94 380.381C3238.8 356.068 3206 339.859 3182.53 331.755C3170.09 327.311 3154.53 330.84 3135.87 342.343C3117.49 353.846 3100.66 369.532 3085.39 389.4C3070.97 408.746 3063.62 424.171 3063.34 435.674C3063.05 439.595 3065.03 444.824 3069.27 451.359L3079.03 465.477C3088.08 482.208 3094.02 495.933 3096.85 506.652C3099.11 516.848 3094.3 535.148 3082.42 561.552C3069.42 590.832 3054.85 610.309 3038.73 619.982C3023.46 628.871 3009.04 628.74 2995.47 619.59C2973.13 604.688 2950.36 596.322 2927.18 594.492C2903.7 592.662 2881.65 597.368 2861 608.61C2841.49 619.851 2826.93 635.014 2817.31 654.099C2807.7 673.183 2804.59 693.182 2807.98 714.097C2810.53 729.521 2816.61 747.429 2826.22 767.821L2854.64 822.329C2875.85 860.498 2889.57 888.863 2895.79 907.424C2906.25 939.058 2906.81 966.638 2897.48 990.167C2889.28 1010.56 2875.99 1024.41 2857.61 1031.73C2839.51 1038.79 2817.46 1038.92 2791.44 1032.13C2783.8 1030.04 2775.46 1020.62 2766.41 1003.89C2759.91 992.128 2750.15 970.429 2737.14 938.796L2722.72 904.679C2709.43 956.966 2700.38 997.095 2695.58 1025.07C2687.94 1067.42 2684.12 1108.33 2684.12 1147.81C2684.12 1177.61 2686.1 1207.55 2690.06 1237.61C2692.32 1255.39 2701.51 1283.75 2717.63 1322.71L2747.75 1388.19C2750.01 1392.38 2753.26 1395.12 2757.5 1396.43L2776.17 1399.17C2808.97 1402.05 2838.1 1413.81 2863.55 1434.47C2890.7 1456.69 2904.98 1482.44 2906.39 1511.72V1513.68C2906.39 1521.79 2903.7 1527.93 2898.33 1532.11L2870.76 1535.64L2848.28 1533.29C2846.58 1538.78 2847.01 1546.23 2849.55 1555.64L2856.76 1577.21C2861.85 1594.46 2867.79 1608.45 2874.58 1619.17L2884.33 1626.62L2899.6 1628.97L2917.84 1632.5C2924.35 1635.64 2928.02 1641.26 2928.87 1649.36C2930.29 1666.62 2938.35 1692.37 2953.05 1726.62C2969.17 1764.79 2984.16 1788.84 2998.01 1798.77C3003.95 1802.95 3018.23 1807.66 3040.85 1812.89C3070.83 1819.42 3092.89 1826.87 3107.03 1835.24C3131.06 1849.62 3145.48 1871.06 3150.29 1899.55L3150.72 1903.47C3150.72 1908.7 3148.6 1914.32 3144.35 1920.34L3129.93 1936.41C3119.75 1946.87 3112.82 1955.11 3109.15 1961.12C3102.36 1971.58 3098.97 1982.56 3098.97 1994.06C3098.97 2000.07 3099.81 2006.35 3101.51 2012.88C3113.95 2059.94 3171.22 2105.56 3273.3 2149.74C3311.76 2166.47 3350.5 2180.2 3389.53 2190.92C3425.72 2200.59 3451.17 2205.03 3465.88 2204.25C3500.38 2202.42 3521.59 2194.84 3529.51 2181.5C3535.73 2171.57 3538.7 2146.08 3538.41 2105.04V2091.7C3538.41 2087.26 3540.39 2083.6 3544.35 2080.72C3551.42 2075.76 3565.28 2074.58 3585.92 2077.19L3663.54 2092.88L3679.24 2096.41C3700.17 2100.85 3724.34 2114.06 3751.77 2136.02C3767.61 2148.83 3792.07 2171.57 3825.16 2204.25C3834.77 2213.92 3848.49 2220.2 3866.3 2223.07L3926.11 2220.72C3947.88 2216.28 3967.11 2209.22 3983.8 2199.54C4000.2 2190.13 4010.24 2180.33 4013.91 2170.13L4018.58 2157.19C4029.33 2123.99 4044.45 2100.85 4063.97 2087.78C4096.49 2066.08 4153.47 2054.32 4234.91 2052.49C4245.09 2052.23 4254.99 2056.54 4264.6 2065.43L4291.32 2096.8C4304.33 2113.53 4314.23 2125.17 4321.02 2131.7C4333.46 2143.73 4346.04 2151.18 4358.77 2154.05C4401.19 2163.73 4438.23 2165.03 4469.9 2157.98C4527.31 2145.17 4579.76 2107.13 4627.27 2043.86C4568.17 2061.64 4520.1 2062.82 4483.05 2047.39C4458.73 2037.2 4440.92 2021.12 4429.61 1999.16C4418.01 1976.41 4414.48 1952.36 4419 1927C4423.53 1902.69 4433.14 1886.61 4447.85 1878.77C4485.74 1858.9 4519.25 1848.31 4548.38 1847C4590.51 1845.17 4627.27 1861.65 4658.66 1896.42C4676.76 1916.28 4704.47 1928.7 4741.8 1933.67C4779.13 1938.37 4812.21 1933.8 4841.06 1919.94C4856.04 1912.89 4868.49 1904.39 4878.38 1894.45L4899.17 1867.79C4911.89 1849.23 4924.76 1836.02 4937.77 1828.18C4951.06 1820.34 4966.19 1816.03 4983.16 1815.24L5028.12 1817.99L5081.56 1819.95C5100.79 1817.07 5117.9 1807.92 5132.89 1792.5C5154.1 1771.06 5168.94 1739.56 5177.43 1697.99C5185.63 1656.42 5183.08 1627.14 5169.79 1610.15C5161.03 1599.17 5147.45 1597.73 5129.07 1605.84C5102.21 1617.34 5071.53 1625.18 5037.03 1629.36L4958.13 1633.68L4926.32 1634.85C4915.85 1635.9 4906.95 1633.02 4899.59 1626.23L4886.02 1606.23L4877.96 1592.5C4875.7 1590.15 4873.01 1589.1 4869.9 1589.37C4862.27 1607.4 4846.57 1620.87 4822.82 1629.76C4805 1636.29 4785.63 1639.82 4764.71 1640.34C4744.91 1640.61 4730.49 1638.12 4721.44 1632.89C4707.3 1624.79 4698.25 1612.89 4694.29 1597.21L4692.17 1580.74C4692.17 1558.78 4701.08 1535.38 4718.89 1510.54C4726.53 1499.83 4740.39 1491.07 4760.46 1484.27C4772.34 1480.09 4793.55 1474.86 4824.09 1468.58C4863.96 1460.48 4894.5 1452.64 4915.71 1445.06C4951.06 1432.25 4979.9 1415.38 5002.24 1394.47C4961.52 1397.87 4928.58 1392.51 4903.41 1378.39C4887.01 1368.98 4875.13 1356.82 4867.78 1341.92C4861.28 1328.85 4859.01 1315.26 4860.99 1301.14C4862.69 1287.28 4868.06 1276.83 4877.11 1269.77C4900.87 1251.47 4931.83 1240.75 4970.01 1237.61L5076.9 1240.75L5156.22 1244.67C5183.65 1244.15 5206.27 1240.23 5224.09 1232.91C5237.94 1227.15 5246.71 1222.06 5250.39 1217.61C5254.06 1213.43 5255.9 1206.5 5255.9 1196.83C5255.9 1182.97 5260.85 1171.86 5270.75 1163.5C5276.97 1158.27 5289.13 1151.86 5307.23 1144.28C5334.37 1133.04 5355.3 1121.93 5370 1110.95C5392.91 1094.74 5411.43 1073.96 5425.57 1048.6ZM5463.75 989.775C5467.71 1003.63 5462.33 1023.76 5447.63 1050.17C5431.79 1078.92 5410.58 1102.84 5384 1121.93C5368.73 1132.91 5346.82 1144.54 5318.25 1156.83C5302.14 1163.63 5290.12 1173.04 5282.2 1185.06C5274.85 1196.57 5273.01 1207.42 5276.69 1217.61C5281.21 1229.38 5266.79 1239.44 5233.42 1247.81C5194.11 1257.48 5141.37 1259.7 5075.2 1254.47C5003.66 1248.46 4949.93 1252.77 4914.02 1267.41C4876.97 1282.32 4866.08 1305.32 4881.35 1336.43C4899.45 1373.29 4942.86 1386.76 5011.58 1376.82C5020.34 1375.52 5027.27 1376.3 5032.36 1379.18C5038.3 1382.57 5038.3 1387.8 5032.36 1394.86C5009.17 1421.79 4976.51 1442.44 4934.38 1456.82C4917.41 1462.31 4881.78 1470.68 4827.48 1481.92L4768.1 1496.03C4749.72 1502.05 4737.42 1509.37 4731.2 1517.99C4718.47 1536.03 4710.69 1553.81 4707.87 1571.33C4704.19 1594.59 4711.26 1611.19 4729.07 1621.13C4740.39 1627.4 4755.94 1629.49 4775.73 1627.4C4792.98 1625.57 4808.11 1621.39 4821.12 1614.85C4827.62 1611.72 4835.12 1604.27 4843.6 1592.5L4862.27 1566.62C4873.01 1554.6 4885.45 1562.44 4899.59 1590.15L4910.2 1611.33C4914.44 1618.65 4919.25 1622.04 4924.62 1621.52L4958.13 1620.34L5034.48 1616.03C5067.85 1611.85 5097.26 1604.27 5122.71 1593.29C5137.7 1586.75 5151.84 1585.18 5165.13 1588.58C5175.31 1591.2 5182.8 1595.64 5187.61 1601.91C5203.73 1622.04 5209.1 1654.46 5203.73 1699.17C5198.07 1744.92 5183.51 1779.69 5160.04 1803.48C5130.34 1833.54 5085.67 1844.78 5026 1837.2L4984.85 1834.46C4969.86 1835.24 4956.86 1838.9 4945.83 1845.44C4938.48 1849.88 4931.97 1855.24 4926.32 1861.51L4911.89 1880.73L4888.99 1909.36C4877.96 1920.6 4864.25 1930.14 4847.84 1937.98C4816.74 1952.88 4779.41 1956.67 4735.86 1949.35C4692.88 1942.3 4661.35 1927.53 4641.27 1905.04C4617.23 1878.38 4590.51 1864.65 4561.1 1863.87C4533.39 1863.08 4498.04 1873.93 4455.06 1896.42C4444.03 1902.17 4436.82 1914.45 4433.42 1933.28C4429.75 1953.67 4433 1973.67 4443.18 1993.28C4453.36 2013.14 4471.6 2027.52 4497.9 2036.41C4531.55 2048.18 4570.86 2046.08 4615.82 2030.14C4655.41 2016.54 4669.55 2017.98 4658.24 2034.45C4572.55 2158.63 4474.99 2208.17 4365.56 2183.07C4349.44 2179.41 4333.74 2172.09 4318.47 2161.11C4304.9 2151.44 4292.88 2139.68 4282.42 2125.82L4255.27 2091.31C4243.96 2078.24 4235.19 2071.84 4228.97 2072.1C4152.34 2073.93 4099.88 2084.25 4071.6 2103.08C4055.77 2113.53 4042.76 2134.45 4032.58 2165.82L4028.34 2178.76C4022.96 2193.14 4010.24 2206.99 3990.16 2220.33C3970.93 2232.88 3950.57 2241.24 3929.08 2245.42L3855.7 2247.39C3831.09 2243.73 3813.14 2236.27 3801.83 2225.03L3737.35 2156.02C3714.16 2132.75 3693.8 2119.28 3676.27 2115.62L3659.73 2111.7C3594.12 2095.76 3558.63 2090.92 3553.26 2097.19C3556.09 2149.22 3554.53 2181.5 3548.59 2194.05C3539.54 2214.18 3513.95 2224.38 3471.82 2224.64C3454.57 2224.9 3427.28 2220.46 3389.95 2211.31C3347.53 2200.59 3306.53 2187.13 3266.94 2170.92C3158.35 2125.95 3096.56 2074.58 3081.58 2016.8C3076.49 1997.46 3078.89 1979.29 3088.79 1962.3C3093.31 1954.98 3103.35 1943.21 3118.9 1927L3131.63 1913.28C3134.74 1908.83 3136.01 1905.04 3135.45 1901.91C3131.49 1877.85 3118.76 1861.65 3097.27 1853.28L3035.34 1839.95L3004.8 1832.89C2993.49 1830.01 2985.43 1826.74 2980.62 1823.08C2964.5 1811.58 2949.09 1782.82 2934.39 1736.81C2922.79 1701 2916.01 1672.24 2914.03 1650.54C2913.74 1647.66 2911.9 1645.7 2908.51 1644.66L2893.67 1642.7L2874.15 1639.56C2866.8 1636.95 2861 1632.37 2856.76 1625.83C2848.84 1613.55 2841.21 1595.9 2833.86 1572.9C2824.81 1545.97 2823.11 1528.98 2828.77 1521.92C2833.29 1516.16 2843.19 1514.99 2858.46 1518.39C2874.29 1522.05 2884.62 1522.05 2889.42 1518.39C2892.82 1515.77 2893.67 1509.37 2891.97 1499.17L2886.03 1479.56C2880.66 1469.11 2870.48 1458.13 2855.49 1446.62C2836.54 1432.77 2807.98 1424.14 2769.81 1420.74L2740.54 1416.82C2728.66 1413.95 2720.88 1409.11 2717.21 1402.31C2712.12 1392.38 2703.92 1368.98 2692.61 1332.12C2680.45 1291.86 2673.09 1261.66 2670.55 1241.53L2662.91 1194.08C2659.8 1175.78 2658.25 1161.01 2658.25 1149.77C2658.25 1109.51 2663.2 1064.94 2673.09 1016.05L2705.33 883.896C2708.16 872.916 2712.97 870.301 2719.75 876.053C2727.95 883.373 2738.42 902.719 2751.14 934.09C2758.49 951.606 2766.13 967.684 2774.05 982.324C2784.23 1001.41 2791.72 1011.6 2796.53 1012.91C2819.72 1018.92 2838.1 1020.1 2851.67 1016.44C2866.09 1012.26 2876.7 1001.8 2883.49 985.069C2891.69 964.678 2889.99 939.842 2878.4 910.562C2873.87 899.32 2859.59 872.001 2835.55 828.603L2803.74 772.526C2792.71 750.828 2785.78 732.135 2782.96 716.45C2779.28 693.182 2784.37 668.608 2798.23 642.726C2812.08 616.845 2830.18 597.63 2852.52 585.081C2874.01 573.055 2898.9 569.657 2927.18 574.885C2952.34 579.591 2978.08 590.702 3004.38 608.218L3030.67 608.61C3044.25 600.244 3055.98 582.859 3065.88 556.454C3074.65 533.187 3078.04 517.501 3076.06 509.397C3074.36 502.338 3067.44 489.659 3055.28 471.359C3044.81 455.412 3039.72 442.732 3040.01 433.321C3040.29 419.203 3050.04 401.557 3069.27 380.381C3087.09 360.512 3106.6 344.042 3127.81 330.971C3141.67 322.605 3152.7 316.853 3160.9 313.716C3172.77 309.272 3182.53 308.488 3190.16 311.363C3213.92 319.991 3246.86 336.984 3289 362.342C3328.59 386.394 3355.45 404.955 3369.59 418.027C3378.64 426.393 3396.46 433.19 3423.04 438.419C3450.75 443.909 3471.82 443.909 3486.24 438.419C3494.44 435.281 3498.54 430.968 3498.54 425.478C3498.54 408.485 3499.67 395.413 3501.93 386.263C3504.48 374.237 3509.29 366.525 3516.36 363.127L3543.08 363.911C3552.98 367.048 3563.58 372.277 3574.89 379.597L3613.49 380.773C3622.54 376.329 3630.18 369.793 3636.4 361.166C3642.34 352.8 3645.16 344.696 3644.88 336.853C3644.6 327.964 3640.07 321.559 3631.31 317.638C3614.62 310.579 3600.63 301.429 3589.31 290.188C3574.61 275.809 3566.55 259.992 3565.14 242.738C3561.74 203.523 3579.98 171.368 3619.85 146.27C3689.14 102.611 3750.64 74.6383 3804.37 62.3511L3838.31 58.8218C3845.66 60.129 3853.15 64.9654 3860.79 73.3312L3885.81 103.134C3895.43 114.114 3901.93 119.212 3905.32 118.428L3927.38 99.6049C3959.34 68.4947 3982.38 47.9725 3996.52 38.0381C4032.15 12.6794 4067.78 0 4103.42 0C4142.16 0 4178.64 5.22861 4212.85 15.6858C4248.2 26.4045 4268 39.0838 4272.24 53.7239C4276.2 66.2726 4267.43 78.2984 4245.94 89.8013C4191.36 118.559 4153.18 144.179 4131.41 166.662C4116.14 181.825 4109.64 194.373 4111.9 204.308C4115.01 221.039 4126.89 239.209 4147.53 258.816C4166.19 277.116 4180.9 287.05 4191.64 288.619C4199.56 289.665 4218.23 281.56 4247.63 264.306L4267.57 250.581C4274.92 245.091 4280.3 241.823 4283.69 240.777C4296.98 236.594 4305.18 239.209 4308.29 248.62L4317.2 276.07C4320.88 281.56 4327.24 287.05 4336.29 292.54C4344.77 298.031 4352.41 301.429 4359.19 302.736C4373.9 305.351 4384.79 303.259 4391.85 296.462C4397.23 291.233 4401.89 281.038 4405.85 265.875C4412.07 242.346 4419.57 223.915 4428.33 210.582C4443.04 188.099 4463.4 173.72 4489.42 167.446L4640.85 163.132C4709.28 168.623 4754.95 178.688 4777.85 193.328C4812.92 215.811 4827.91 237.117 4822.82 257.247C4819.42 269.535 4809.53 280.384 4793.12 289.795C4775.31 300.253 4752.97 307.05 4726.11 310.187C4702.35 312.801 4680.72 316.853 4661.21 322.344C4631.51 330.709 4615.54 340.513 4613.27 351.754C4610.73 365.61 4625.58 373.453 4657.81 375.283C4694.57 377.375 4715.5 383.518 4720.59 393.714C4724.27 400.773 4722.15 407.831 4714.23 414.89C4708.01 420.38 4699.66 424.955 4689.2 428.615C4673.37 434.105 4661.77 445.477 4654.42 462.732C4646.78 480.77 4653.29 489.79 4673.93 489.79C4683.83 489.79 4693.16 486.26 4701.93 479.202L4726.11 458.81L4733.32 458.418C4751.7 466.261 4760.75 474.365 4760.46 482.731C4760.18 487.698 4756.5 496.456 4749.43 509.005C4745.19 521.292 4743.07 530.965 4743.07 538.024C4743.36 550.572 4748.59 563.382 4758.77 576.454C4775.73 598.675 4792.56 610.57 4809.24 612.139C4826.78 613.708 4847.28 604.165 4870.75 583.512L4902.14 549.004C4915.71 532.795 4926.46 521.553 4934.38 515.279C4968.31 488.09 5010.3 472.405 5060.36 468.222L5201.18 474.104C5224.94 476.457 5245.16 486.783 5261.84 505.083C5277.39 522.599 5285.17 541.422 5285.17 561.552C5285.17 575.408 5281.21 587.695 5273.29 598.414C5265.09 609.133 5254.77 615.799 5242.33 618.413L5129.5 609.394C5073.22 602.597 5039.85 604.688 5029.39 615.668C5026.28 618.805 5024.87 623.773 5025.15 630.57L5027.27 651.354C5027.84 655.014 5026 657.366 5021.76 658.412C4971.99 671.222 4930.84 690.699 4898.32 716.842C4872.3 738.279 4853.78 762.069 4842.75 788.212C4829.75 818.8 4825.36 851.609 4829.6 886.641C4833.56 916.444 4842.75 942.064 4857.18 963.501C4885.45 1006.11 4931.12 1023.5 4994.18 1015.66C5048.48 1009.38 5081.71 986.769 5093.87 947.815C5096.98 937.881 5102.21 928.208 5109.56 918.797C5116.91 909.385 5124.41 902.719 5132.04 898.797C5143.92 893.046 5159.47 891.608 5178.7 894.484L5230.03 907.424C5235.4 908.993 5240.06 911.869 5244.02 916.052L5254.2 928.992C5262.69 940.757 5269.19 948.469 5273.72 952.129C5283.9 960.495 5297.89 965.462 5315.71 967.031L5384 971.344L5442.54 975.266C5454.13 976.311 5461.2 981.148 5463.75 989.775Z" fill="#664497"/>
<path d="M4325.68 845.463C4316.35 848.862 4310.55 851.345 4308.29 852.914C4288.78 831.999 4271.39 815.007 4256.12 801.935C4187.4 740.76 4108.36 693.441 4019 659.978C3929.64 626.515 3837.88 609.784 3743.71 609.784C3640.22 609.784 3545.06 625.6 3458.24 657.233C3371.43 688.866 3296.21 735.009 3232.58 795.661C3182.53 843.502 3141.67 899.448 3110 963.499C3099.82 956.963 3093.45 951.735 3090.91 947.813C3146.33 838.012 3227.92 751.348 3335.66 687.821C3451.6 619.326 3586.35 585.079 3739.9 585.079C3852.44 585.079 3961.74 609.522 4067.78 658.41C4167.61 704.683 4253.57 767.034 4325.68 845.463Z" fill="#0D131A"/>
<path d="M4437.67 1062.72C4439.36 1044.94 4439.64 1030.56 4438.51 1019.58C4474.99 1100.89 4493.23 1182.58 4493.23 1264.67C4493.23 1358.53 4473.3 1448.33 4433.42 1534.08C4394.96 1616.95 4340.81 1690.28 4270.96 1754.07C4201.12 1817.86 4121.37 1867.27 4031.73 1902.3C3938.69 1938.38 3841.84 1956.42 3741.17 1956.42C3569.8 1956.42 3417.1 1904.78 3283.06 1801.52C3143.65 1693.81 3058.81 1554.73 3028.55 1384.28C3035.06 1392.38 3041.99 1404.28 3049.34 1419.96C3056.97 1435.39 3063.34 1446.37 3068.43 1452.9C3111.69 1593.03 3195.54 1707.67 3319.96 1796.81C3446.93 1887.53 3590.3 1932.89 3750.08 1932.89C3846.51 1932.89 3939.54 1915.11 4029.18 1879.56C4115.43 1845.57 4192.35 1797.6 4259.94 1735.64C4327.24 1673.94 4379.55 1603.49 4416.88 1524.27C4455.62 1441.92 4474.99 1356.56 4474.99 1268.2C4474.99 1197.35 4462.55 1128.86 4437.67 1062.72Z" fill="#0D131A"/>
<path d="M4469.05 763.506C4500.16 751.219 4517.69 746.905 4521.65 750.565C4525.33 754.487 4511.9 763.114 4481.36 776.447C4387.75 817.23 4240.28 893.568 4038.94 1005.46C3834.49 1119.18 3700.02 1200.09 3635.55 1248.2C3614.34 1263.88 3602.04 1269.37 3598.65 1264.67C3594.97 1259.96 3603.74 1249.37 3624.94 1232.9C3696.49 1177.22 3833.78 1093.43 4036.82 981.539C4233.35 873.045 4377.43 800.368 4469.05 763.506Z" fill="#0D131A"/>
<path d="M2946.69 810.562C2934.24 793.831 2928.73 783.373 2930.14 779.19C2931.56 774.746 2940.89 781.282 2958.14 798.798L3180.83 1023.5C3288.86 1129.64 3371.29 1204.28 3428.13 1247.41C3445.09 1260.22 3453.44 1269.63 3453.15 1275.65C3452.87 1281.66 3443.96 1278.65 3426.43 1266.63C3365.35 1224.01 3275.99 1145.85 3158.35 1032.12C3048.35 925.722 2977.79 851.868 2946.69 810.562Z" fill="#0D131A"/>
<path d="M3896.84 1694.07C3898.26 1697.73 3901.37 1702.17 3906.17 1707.4C3794.47 1755.5 3679.1 1779.16 3560.05 1778.38C3459.94 1778.12 3372.42 1761.65 3297.48 1728.97V1711.71C3333.11 1727.4 3372.42 1739.03 3415.4 1746.61C3457.25 1754.19 3504.9 1758.12 3558.35 1758.38C3679.95 1758.9 3792.78 1737.46 3896.84 1694.07Z" fill="#0D131A"/>
<path d="M3979.13 1670.93L3977.86 1654.46C4006.14 1638.51 4033.14 1620.61 4058.88 1600.74C3964.71 1595.77 3813 1596.42 3603.74 1602.7C3395.04 1609.23 3250.26 1617.73 3169.38 1628.19C3188.89 1645.7 3210.38 1662.04 3233.85 1677.21L3250.82 1705.05C3215.76 1685.18 3181.4 1659.69 3147.75 1628.58C3140.11 1621.52 3141.38 1617.21 3151.56 1615.64C3250.82 1600.22 3400.98 1589.5 3602.04 1583.48C3802.53 1577.73 3961.46 1579.3 4078.81 1588.19C4083.9 1588.45 4086.87 1589.63 4087.72 1591.72C4088.85 1593.81 4087.44 1596.56 4083.48 1599.95C4051.24 1626.36 4016.46 1650.02 3979.13 1670.93Z" fill="#0D131A"/>
<path d="M4382.1 817.229C4412.36 868.47 4431.73 927.161 4440.21 993.303C4448.69 1058.66 4445.73 1124.15 4431.3 1189.77C4398.78 1337.74 4323 1445.45 4203.94 1512.9C4147.95 1544.79 4087.3 1561.78 4021.97 1563.87C3959.2 1566.23 3899.1 1554.72 3841.7 1529.37C3783.45 1503.75 3735.37 1467.15 3697.48 1419.56C3656.76 1368.59 3631.87 1310.16 3622.82 1244.28C3622.54 1242.18 3625.09 1240.35 3630.46 1238.79C3636.11 1236.96 3639.08 1236.96 3639.37 1238.79C3651.53 1304.4 3677.12 1361.66 3716.14 1410.55C3752.9 1456.3 3798.29 1491.07 3852.3 1514.86C3905.18 1538.38 3960.75 1548.71 4019 1545.84C4078.95 1543.22 4135.37 1526.88 4188.25 1496.82C4302.78 1431.98 4376.3 1328.06 4408.82 1185.06C4423.24 1121.27 4426.64 1057.75 4419 994.479C4410.8 930.167 4392.14 873.176 4363.01 823.504C4361.88 821.674 4364.57 819.713 4371.07 817.622L4382.1 817.229Z" fill="#0D131A"/>
<path d="M3003.1 854.091C3007.63 859.581 3009.61 863.11 3009.04 864.679C2973.13 948.075 2960.12 1044.8 2970.02 1154.87C2980.76 1273.82 3016.39 1369.63 3076.91 1442.31C3104.06 1474.99 3133.33 1497.34 3164.71 1509.37C3195.54 1521.13 3225.51 1521.78 3254.64 1511.33C3297.62 1496.16 3334.95 1459.56 3366.62 1401.53C3396.6 1346.36 3409.75 1295.91 3406.07 1250.16L3413.71 1250.94C3418.8 1253.03 3421.34 1254.86 3421.34 1256.43C3423.32 1306.37 3409.6 1359.04 3380.2 1414.47C3348.52 1474.6 3310.07 1512.76 3264.82 1528.97C3236.82 1538.91 3205.86 1539.17 3171.93 1529.76C3129.22 1517.73 3091.05 1491.33 3057.4 1450.54C2993.77 1373.95 2957.15 1273.82 2947.54 1150.16C2938.49 1034.87 2954.32 934.22 2995.04 848.209C2995.89 846.379 2998.58 848.34 3003.1 854.091Z" fill="#0D131A"/>
<path d="M3572.77 1088.6C3574.75 1078.14 3577.01 1073.17 3579.56 1073.7C3582.39 1073.96 3583.8 1079.32 3583.8 1089.77C3583.52 1121.67 3586.2 1151.08 3591.86 1178.01C3593.84 1188.46 3593.7 1195.26 3591.43 1198.4C3588.89 1201.8 3585.21 1196.18 3580.41 1181.54C3569.66 1147.55 3567.11 1116.57 3572.77 1088.6Z" fill="#B05965"/>
<path d="M3451.88 1096.44C3452.45 1113.95 3453.72 1129.38 3455.7 1142.71C3457.68 1155.78 3461.21 1171.6 3466.3 1190.16C3469.13 1200.09 3469.27 1205.19 3466.73 1205.45C3464.18 1205.45 3460.93 1201.53 3456.97 1193.69C3449.62 1179.05 3444.53 1162.84 3441.7 1145.06C3439.16 1128.59 3439.01 1112.78 3441.28 1097.61C3442.69 1087.16 3444.67 1081.93 3447.22 1081.93C3450.04 1081.67 3451.6 1086.5 3451.88 1096.44Z" fill="#B05965"/>
<path d="M3409.04 1374.86C3413.28 1353.95 3417.1 1343.1 3420.49 1342.31C3423.88 1341.79 3424.59 1350.68 3422.61 1368.98C3418.94 1399.04 3412.29 1423.75 3402.68 1443.09C3393.91 1461.13 3380.76 1478.13 3363.23 1494.07C3350.22 1506.1 3342.87 1510.54 3341.17 1507.41C3339.47 1504.27 3343.72 1497.34 3353.9 1486.62C3366.62 1473.03 3378.07 1455.9 3388.25 1435.25C3398.43 1414.86 3405.36 1394.73 3409.04 1374.86Z" fill="#B05965"/>
<path d="M3635.97 1368.2C3633.71 1349.9 3633.85 1340.22 3636.4 1339.18C3638.94 1337.87 3642.62 1346.76 3647.43 1365.84C3653.08 1389.11 3661.14 1410.42 3671.6 1429.76C3681.22 1447.54 3694.51 1466.49 3711.48 1486.62C3719.39 1496.3 3722.36 1501.92 3720.38 1503.49C3718.12 1505.05 3712.33 1501.92 3702.99 1494.07C3683.76 1477.87 3668.07 1457.34 3655.91 1432.51C3645.73 1411.59 3639.08 1390.16 3635.97 1368.2Z" fill="#B05965"/>
<path d="M4341.38 1448.59C4328.65 1456.95 4319.46 1460.74 4313.81 1459.96C4308.15 1459.18 4311.69 1454.47 4324.41 1445.84C4350.99 1427.28 4373.33 1402.58 4391.43 1371.73C4409.53 1340.88 4421.26 1307.55 4426.64 1271.73C4429.46 1254.21 4432.58 1246.5 4435.97 1248.59C4439.65 1250.95 4440.35 1261.01 4438.09 1278.79C4433.28 1319.05 4423.81 1351.99 4409.67 1377.61C4394.68 1404.54 4371.92 1428.2 4341.38 1448.59Z" fill="#B05965"/>
<path d="M3971.5 1592.5C3971.5 1590.93 3973.9 1589.89 3978.71 1589.36C3983.51 1589.1 3986.06 1589.89 3986.34 1591.72C3988.6 1607.14 3987.47 1637.34 3982.95 1682.3C3978.71 1724.65 3974.47 1752.76 3970.22 1766.61L3965.98 1777.99C3963.72 1779.03 3957.78 1775.89 3948.17 1768.57C3930.92 1755.76 3913.38 1732.5 3895.57 1698.77C3876.34 1662.43 3864.32 1627.27 3859.51 1593.29C3859.23 1591.46 3861.49 1590.28 3866.3 1589.76C3871.39 1589.23 3874.08 1589.89 3874.36 1591.72C3878.6 1620.47 3889.77 1652.24 3907.87 1687.01C3924.27 1718.38 3940.81 1742.17 3957.5 1758.38C3962.59 1743.22 3966.55 1711.98 3969.38 1664.66C3971.64 1622.83 3972.34 1599.17 3971.5 1593.68V1592.5Z" fill="#0D131A"/>
<path d="M3291.12 1612.11C3291.12 1610.28 3293.1 1609.36 3297.06 1609.36C3301.02 1609.1 3303.14 1609.89 3303.42 1611.72C3306.81 1695.64 3307.1 1744.92 3304.27 1759.56C3303.42 1763.74 3302.01 1765.96 3300.03 1766.22C3297.2 1766.75 3292.39 1764 3285.6 1757.99C3265.53 1740.47 3246.3 1715.37 3227.92 1682.7C3212.93 1656.03 3203.74 1635.25 3200.34 1620.35C3200.06 1618.52 3202.04 1617.21 3206.28 1616.42C3210.81 1615.38 3213.21 1615.77 3213.49 1617.6C3216.32 1628.58 3224.95 1646.49 3239.37 1671.32C3256.62 1700.6 3274.01 1724.39 3291.54 1742.69L3291.97 1681.13L3291.12 1612.5V1612.11Z" fill="#0D131A"/>
<path d="M4019 2295.23C4012.22 2317.45 4016.04 2337.58 4030.46 2355.62C4040.35 2367.9 4054.64 2377.97 4073.3 2385.81C4092.25 2393.39 4113.74 2397.84 4137.77 2399.14C4171.71 2401.24 4202.67 2399.14 4230.67 2392.87C4263.75 2385.81 4286.8 2373.79 4299.81 2356.79C4305.18 2350.52 4309 2343.98 4311.26 2337.19C4314.66 2327.25 4313.81 2318.75 4308.72 2311.7C4303.06 2303.85 4294.44 2295.1 4282.84 2285.42C4270.68 2275.23 4261.49 2269.21 4255.27 2267.38C4243.96 2264.25 4229.25 2264.51 4211.16 2268.17L4167.04 2275.62C4150.36 2276.4 4129.43 2271.04 4104.26 2259.54L4069.91 2242.29C4042.76 2253.79 4025.79 2271.44 4019 2295.23ZM3997.8 2290.13C4000.62 2278.89 4010.24 2264.51 4026.64 2246.99C4043.32 2228.95 4056.76 2219.02 4066.94 2217.19C4072.31 2216.4 4080.65 2219.67 4091.96 2226.99L4125.9 2249.74C4139.75 2258.1 4152.34 2262.15 4163.65 2261.89L4211.58 2254.44C4231.09 2250.78 4247.07 2250.65 4259.51 2254.05C4268 2256.4 4280.16 2264.38 4295.99 2277.97C4310.7 2290.52 4321.02 2301.11 4326.96 2309.74C4333.46 2318.89 4335.44 2329.34 4332.89 2341.11C4330.63 2350.78 4325.68 2360.58 4318.05 2370.52C4300.8 2392.48 4269.41 2406.2 4223.88 2411.69C4201.82 2414.31 4172.84 2414.7 4136.93 2412.87C4110.06 2411.3 4085.46 2406.2 4063.12 2397.58C4040.21 2388.69 4023.25 2377.45 4012.22 2363.85C3995.53 2342.94 3990.73 2318.36 3997.8 2290.13Z" fill="#664497"/>
<path d="M4952.19 1985.82L4918.26 1991.31L4868.2 2000.33C4848.97 2005.56 4834.55 2013.67 4824.94 2024.65C4813.34 2037.46 4810.94 2051.84 4817.73 2067.78C4823.95 2082.42 4835.54 2093.27 4852.51 2100.33C4874.57 2109.74 4896.34 2115.36 4917.83 2117.19C4943.28 2119.55 4964.49 2116.02 4981.46 2106.61C5002.67 2094.58 5024.87 2076.8 5048.05 2053.27C5070.68 2030.01 5087.64 2008.18 5098.96 1987.79C5106.03 1974.98 5103.76 1963.86 5092.17 1954.45C5087.08 1950.27 5072.37 1942.56 5048.05 1931.32C5036.74 1931.32 5025.57 1937.46 5014.54 1949.75C5001.25 1964.65 4991.36 1973.54 4984.85 1976.41C4976.09 1980.07 4965.2 1983.21 4952.19 1985.82ZM5006.06 1938.77L5023.03 1922.69C5032.08 1915.89 5039.43 1912.1 5045.09 1911.32C5053.29 1910.27 5065.73 1914.59 5082.41 1924.26C5099.38 1934.19 5110.41 1943.87 5115.5 1953.28C5119.46 1960.6 5119.74 1969.35 5116.35 1979.55L5104.05 2005.04C5091.89 2027.26 5075.48 2049.22 5054.84 2070.92C5032.78 2094.19 5010.87 2111.83 4989.09 2123.86C4970.43 2134.32 4945.69 2137.58 4914.86 2133.66C4890.83 2130.53 4865.94 2123.6 4840.21 2112.88C4829.46 2108.44 4818.58 2099.29 4807.55 2085.43C4793.69 2068.18 4788.74 2052.1 4792.7 2037.2C4798.07 2016.54 4815.04 2001.77 4843.6 1992.88C4853.22 1989.75 4880.36 1984.78 4925.04 1977.98L4964.92 1971.32C4973.96 1969.22 4982.17 1964.78 4989.52 1957.98L5006.06 1938.77Z" fill="#664497"/>
<path d="M5412.42 1388.19L5414.97 1381.14L5424.3 1350.16C5426.28 1337.35 5424.16 1329.63 5417.94 1327.02C5411.43 1324.41 5403.23 1323.49 5393.33 1324.27L5363.64 1328.59L5319.1 1334.08C5301.29 1334.86 5284.89 1332.64 5269.9 1327.41L5243.6 1323.49C5232.57 1323.23 5224.65 1324.67 5219.85 1327.8C5205.71 1337.48 5190.44 1359.18 5174.03 1392.9C5156.22 1430.28 5150.42 1459.04 5156.64 1479.17C5160.6 1491.72 5168.94 1499.82 5181.67 1503.48C5200.05 1508.71 5225.22 1505.45 5257.17 1493.68C5284.32 1483.75 5306.09 1472.37 5322.5 1459.56C5328.72 1454.86 5340.45 1447.41 5357.7 1437.21L5391.21 1416.43C5401.68 1407.8 5408.75 1398.39 5412.42 1388.19ZM5423.87 1314.47C5429.53 1316.56 5433.91 1322.71 5437.02 1332.9C5439.85 1342.31 5440.56 1350.16 5439.14 1356.43C5433.49 1383.36 5425.01 1403.1 5413.69 1415.64C5406.06 1424.01 5390.08 1435.12 5365.76 1448.98L5348.37 1461.92L5332.25 1476.03C5316.13 1488.32 5293.51 1499.17 5264.38 1508.58C5228.75 1520.09 5199.77 1522.7 5177.43 1516.43C5159.61 1511.72 5147.88 1500.61 5142.22 1483.09C5134.87 1459.56 5139.82 1426.76 5157.07 1384.66C5173.19 1345.97 5189.16 1321.4 5205 1310.94C5212.35 1306.24 5224.37 1304.93 5241.05 1307.02C5253.21 1308.59 5264.53 1311.2 5274.99 1314.86C5287.71 1319.05 5301.99 1320.88 5317.83 1320.35L5360.67 1314.86L5393.76 1310.55C5405.64 1309.77 5415.67 1311.07 5423.87 1314.47Z" fill="#664497"/>
<path d="M5417.09 772.137L5423.87 766.647C5426.42 762.987 5427.97 758.15 5428.54 752.138C5429.1 745.863 5428.4 740.242 5426.42 735.275C5424.16 729.785 5420.48 726.387 5415.39 725.08L5358.97 727.432C5337.77 732.922 5325.32 739.981 5321.65 748.608C5317.12 759.327 5314.15 767.693 5312.74 773.706C5310.19 784.424 5310.62 793.051 5314.01 799.587C5317.69 806.646 5325.75 812.005 5338.19 815.665C5345.54 817.757 5357.14 816.057 5372.97 810.567C5389.09 805.339 5399.84 799.456 5405.21 792.921L5409.03 779.588L5417.09 772.137ZM5419.63 703.512C5429.25 705.864 5436.03 712.008 5439.99 721.942C5442.25 726.387 5443.39 735.145 5443.39 748.216L5441.69 756.451L5436.6 773.706L5422.18 786.254C5420.76 793.836 5418.92 798.803 5416.66 801.156C5409.03 810.044 5396.3 818.41 5378.49 826.253C5359.54 834.619 5344.69 837.364 5333.95 834.488C5317.55 830.044 5306.52 822.332 5300.86 811.351C5292.66 796.189 5295.07 773.575 5308.07 743.51C5313.73 730.439 5329.14 719.328 5354.31 710.178C5379.76 701.028 5401.53 698.806 5419.63 703.512Z" fill="#664497"/>
<path d="M3557.08 55.6848C3554.53 51.2405 3546.61 49.0183 3533.32 49.0183C3511.27 49.0183 3482.99 53.9855 3448.49 63.9199C3431.52 68.887 3417.52 74.8999 3406.49 81.9586L3384.86 99.6051C3371.85 111.631 3357.15 119.082 3340.75 121.957L3312.33 125.487C3301.02 127.317 3291.97 130.454 3285.18 134.898C3280.94 137.512 3278.39 149.015 3277.54 169.407C3276.7 188.491 3277.4 203.131 3279.67 213.327C3284.47 235.81 3293.95 250.32 3308.09 256.855L3379.35 258.816C3391.79 256.725 3403.81 250.45 3415.4 239.993L3445.94 204.7C3453.29 195.027 3470.83 177.25 3498.54 151.368C3521.73 129.67 3537.42 111.108 3545.62 95.6836L3546.05 94.8994L3556.23 72.9392C3559.34 64.8349 3559.62 59.0834 3557.08 55.6848ZM3533.32 29.8032C3555.66 29.8032 3568.1 37.7768 3570.65 53.7241C3572.91 66.5342 3569.09 82.22 3559.2 100.782L3558.77 101.566C3550.29 118.036 3534.45 137.12 3511.27 158.819C3482.99 185.224 3465.17 203.131 3457.82 212.543L3424.31 253.718C3410.74 267.574 3396.6 275.678 3381.89 278.031L3301.72 276.071C3279.1 267.705 3264.82 249.666 3258.88 221.954C3256.34 210.713 3255.77 196.465 3257.18 179.211C3258.6 161.433 3261.71 147.578 3266.52 137.643C3273.02 124.049 3289 114.768 3314.45 109.801C3345.55 103.527 3364.78 97.6444 3372.14 92.1543L3405.65 65.0963C3418.65 55.4234 3431.52 48.7569 3444.25 45.0969C3478.75 34.9011 3508.44 29.8032 3533.32 29.8032Z" fill="#664497"/>
<path d="M3804.8 1207.42C3803.66 1184.93 3807.06 1173.56 3814.98 1173.3C3818.93 1173.04 3822.19 1176.57 3824.73 1183.89L3828.97 1205.45C3830.1 1227.68 3826.71 1239.18 3818.79 1239.96C3810.88 1240.22 3806.21 1229.38 3804.8 1207.42Z" fill="#0D131A"/>
<path d="M3267.36 1212.12C3264.54 1191.47 3266.8 1180.62 3274.15 1179.57C3278.11 1179.05 3281.64 1182.19 3284.75 1188.99L3290.27 1208.59C3293.38 1228.98 3291.12 1239.97 3283.48 1241.53C3275.85 1242.58 3270.47 1232.78 3267.36 1212.12Z" fill="#0D131A"/>
<path d="M431.239 759.583L428.575 782.894C424.135 813.974 415.81 843.945 403.6 872.806C391.389 901.666 375.405 927.419 355.646 950.063C335.888 972.486 312.355 990.246 285.049 1003.34C257.964 1016.22 227.216 1022.33 192.806 1021.66C159.949 1020.99 132.087 1013.89 109.221 1000.35C86.5762 986.583 68.5938 968.379 55.2734 945.734C42.1751 923.09 33.4059 897.892 28.9658 870.142C24.5257 842.169 24.0817 813.53 27.6338 784.226L30.2979 761.248C34.738 730.167 43.0632 700.308 55.2734 671.669C67.7057 643.03 83.8011 617.5 103.56 595.077C123.54 572.433 147.073 554.672 174.157 541.796C201.464 528.92 232.101 522.814 266.067 523.48C298.924 523.924 326.675 531.029 349.319 544.793C372.186 558.335 390.168 576.429 403.267 599.073C416.587 621.496 425.467 646.693 429.907 674.666C434.347 702.417 434.791 730.722 431.239 759.583ZM329.672 784.226L333.002 760.249C334.778 745.153 335.666 728.835 335.666 711.297C335.888 693.536 333.89 676.553 329.672 660.347C325.454 643.918 317.906 630.487 307.027 620.053C296.371 609.396 280.942 603.624 260.739 602.736C238.983 602.07 220.334 606.399 204.794 615.724C189.476 625.048 176.599 637.702 166.165 653.687C155.953 669.449 147.85 686.765 141.855 705.636C136.083 724.284 131.865 742.6 129.201 760.582L126.204 784.559C124.206 799.433 123.096 815.861 122.874 833.844C122.874 851.604 124.983 868.699 129.201 885.127C133.419 901.333 140.967 914.765 151.846 925.421C162.724 936.077 178.264 941.849 198.467 942.737C220.001 943.403 238.428 938.963 253.746 929.417C269.286 919.871 282.274 907.216 292.708 891.454C303.142 875.47 311.356 858.153 317.351 839.505C323.345 820.634 327.452 802.208 329.672 784.226ZM594.746 729.279L521.151 1153.53H427.243L513.825 654.686H600.407L594.746 729.279ZM797.881 828.849L796.882 835.842C794.218 857.598 789.112 879.577 781.563 901.777C774.237 923.978 764.136 944.291 751.26 962.718C738.383 980.922 722.51 995.575 703.64 1006.67C684.769 1017.55 662.569 1022.66 637.038 1021.99C614.616 1021.33 595.967 1015.44 581.093 1004.34C566.218 993.243 554.563 979.035 546.127 961.719C537.691 944.18 531.808 925.31 528.478 905.107C525.147 884.905 523.815 865.59 524.481 847.164L526.812 828.516C530.143 808.313 535.915 787.556 544.129 766.243C552.343 744.709 562.999 724.95 576.098 706.968C589.196 688.763 604.847 674.222 623.052 663.344C641.256 652.243 662.236 647.026 685.99 647.692C710.633 648.358 730.724 654.242 746.265 665.342C762.027 676.442 774.015 690.872 782.229 708.633C790.444 726.393 795.55 745.819 797.548 766.909C799.768 787.778 799.879 808.424 797.881 828.849ZM703.307 835.509L704.306 828.516C705.194 818.747 705.638 807.98 705.638 796.214C705.638 784.226 704.306 772.792 701.642 761.914C698.978 751.036 694.093 741.934 686.989 734.607C679.885 727.281 669.673 723.396 656.353 722.952C642.81 722.286 630.933 724.395 620.721 729.279C610.508 734.163 601.85 741.046 594.746 749.926C587.864 758.584 582.203 768.463 577.763 779.563C573.323 790.664 570.104 802.097 568.105 813.863L561.445 860.484C560.335 874.027 561.223 887.458 564.109 900.778C566.995 913.877 572.657 924.755 581.093 933.413C589.751 942.071 602.183 946.622 618.39 947.066C633.042 947.288 645.474 943.958 655.687 937.076C665.899 930.194 674.224 921.092 680.662 909.77C687.322 898.225 692.428 885.904 695.98 872.806C699.533 859.707 701.975 847.275 703.307 835.509ZM1032.65 913.433C1034.43 902.776 1031.76 894.562 1024.66 888.79C1017.56 882.796 1008.79 878.245 998.352 875.137C988.139 872.029 979.259 869.587 971.711 867.811C958.391 864.258 944.959 859.818 931.417 854.49C918.097 848.94 905.997 842.058 895.119 833.844C884.241 825.63 875.583 815.639 869.145 803.873C862.706 791.885 859.82 777.787 860.486 761.581C861.152 742.267 866.036 725.505 875.139 711.297C884.463 696.867 896.451 684.989 911.104 675.665C925.756 666.119 941.74 659.015 959.057 654.353C976.373 649.69 993.578 647.581 1010.67 648.025C1034.65 648.247 1056.85 652.688 1077.27 661.346C1097.92 670.004 1114.57 682.88 1127.23 699.975C1140.1 717.069 1146.54 738.382 1146.54 763.912L1053.63 763.579C1053.85 753.811 1052.3 745.264 1048.97 737.938C1045.64 730.611 1040.53 724.95 1033.65 720.954C1026.77 716.958 1018 714.96 1007.34 714.96C998.907 714.96 990.47 716.625 982.034 719.955C973.82 723.063 966.716 727.725 960.722 733.941C954.728 740.158 950.953 747.817 949.399 756.919C948.067 764.467 949.177 770.683 952.729 775.567C956.282 780.451 961.055 784.448 967.049 787.556C973.043 790.442 979.37 792.884 986.03 794.882C992.69 796.658 998.685 798.101 1004.01 799.211C1023.55 804.317 1042.64 810.866 1061.29 818.858C1079.94 826.851 1095.15 838.062 1106.91 852.492C1118.68 866.701 1124.12 885.682 1123.23 909.437C1122.56 929.639 1117.24 946.955 1107.25 961.386C1097.25 975.594 1084.38 987.249 1068.62 996.352C1053.08 1005.23 1036.2 1011.67 1018 1015.67C1000.02 1019.88 982.367 1021.88 965.051 1021.66C940.852 1021.22 918.097 1016.33 896.784 1007.01C875.694 997.684 858.599 984.141 845.501 966.381C832.403 948.398 825.743 926.42 825.521 900.445L913.435 900.778C913.657 912.323 915.988 922.091 920.428 930.083C924.868 938.075 931.195 944.18 939.409 948.398C947.845 952.395 957.836 954.393 969.38 954.393C978.482 954.615 987.473 953.394 996.354 950.729C1005.46 948.065 1013.34 943.736 1020 937.742C1026.66 931.526 1030.88 923.423 1032.65 913.433ZM219.779 1641.5L94.2354 1641.17L107.889 1563.25L223.109 1563.58C239.538 1563.58 254.634 1560.69 268.398 1554.92C282.163 1548.93 293.485 1540.27 302.365 1528.95C311.245 1517.62 316.907 1503.41 319.349 1486.32C321.569 1471.89 320.792 1458.9 317.018 1447.36C313.243 1435.81 306.583 1426.49 297.037 1419.39C287.491 1412.28 275.17 1408.4 260.073 1407.73L169.162 1407.4L98.5645 1814H0.993164L84.9111 1329.14L263.07 1329.47C293.929 1330.14 321.458 1336.8 345.656 1349.45C369.855 1361.89 388.503 1379.65 401.602 1402.74C414.922 1425.6 420.25 1453.24 417.586 1485.65C414.7 1520.95 403.711 1550.15 384.618 1573.24C365.526 1596.32 341.438 1613.53 312.355 1624.85C283.495 1635.95 252.636 1641.5 219.779 1641.5ZM454.363 1639.5L455.362 1632.51C458.026 1606.98 464.132 1583 473.678 1560.58C483.446 1537.94 496.322 1518.07 512.307 1500.97C528.513 1483.66 547.494 1470.22 569.251 1460.68C591.23 1450.91 615.872 1446.36 643.179 1447.03C669.153 1447.47 691.576 1452.69 710.446 1462.68C729.317 1472.67 744.746 1486.1 756.734 1502.97C768.945 1519.84 777.492 1539.16 782.376 1560.91C787.482 1582.67 788.925 1605.65 786.705 1629.85L786.039 1637.17C783.153 1662.48 776.715 1686.35 766.725 1708.77C756.956 1730.97 743.969 1750.62 727.763 1767.71C711.778 1784.58 692.797 1797.79 670.818 1807.34C648.84 1816.89 624.419 1821.33 597.557 1820.66C572.026 1820.22 549.715 1815.11 530.622 1805.34C511.53 1795.35 495.989 1782.03 484.001 1765.38C472.013 1748.51 463.577 1729.31 458.692 1707.77C453.808 1686.24 452.365 1663.48 454.363 1639.5ZM548.938 1632.51L548.272 1639.84C547.161 1650.49 546.828 1661.93 547.272 1674.14C547.717 1686.12 549.604 1697.56 552.934 1708.44C556.486 1719.31 562.258 1728.19 570.25 1735.08C578.242 1741.96 589.231 1745.62 603.218 1746.07C618.092 1746.51 630.857 1743.51 641.514 1737.08C652.17 1730.64 660.939 1721.98 667.821 1711.1C674.703 1700 680.143 1688.01 684.139 1675.14C688.135 1662.04 690.799 1649.27 692.131 1636.84L692.797 1629.85C693.685 1619.19 693.907 1607.76 693.463 1595.55C693.241 1583.11 691.354 1571.46 687.802 1560.58C684.25 1549.48 678.478 1540.38 670.485 1533.27C662.493 1526.17 651.504 1522.4 637.518 1521.95C622.643 1521.29 609.878 1524.39 599.222 1531.28C588.565 1537.94 579.796 1546.82 572.914 1557.92C566.032 1569.02 560.593 1581.12 556.597 1594.21C552.823 1607.31 550.27 1620.08 548.938 1632.51ZM1014.63 1302.17L925.716 1814H832.141L921.054 1302.17H1014.63ZM1212.1 1453.69L1029.28 1632.51L931.377 1718.43L908.066 1643.5L984.991 1561.25L1092.89 1453.69H1212.1ZM1051.59 1814L975.334 1643.5L1046.26 1588.89L1154.83 1814H1051.59ZM1368.76 1820.66C1344.12 1820.22 1321.92 1815.55 1302.16 1806.67C1282.4 1797.57 1265.86 1785.14 1252.54 1769.38C1239.44 1753.61 1229.79 1735.3 1223.57 1714.43C1217.36 1693.56 1215.14 1671.14 1216.91 1647.16L1218.24 1633.51C1220.91 1608.42 1227.01 1584.56 1236.56 1561.91C1246.1 1539.27 1258.87 1519.29 1274.85 1501.97C1290.84 1484.43 1309.71 1470.78 1331.47 1461.01C1353.44 1451.02 1377.87 1446.36 1404.73 1447.03C1429.81 1447.47 1451.24 1452.58 1469 1462.34C1486.76 1472.11 1501.08 1485.21 1511.96 1501.64C1522.83 1518.07 1530.27 1536.83 1534.27 1557.92C1538.26 1578.79 1539.04 1600.65 1536.6 1623.52L1531.27 1663.48H1252.88L1263.2 1599.54L1447.02 1599.88L1448.68 1591.55C1450.46 1579.34 1449.91 1568.02 1447.02 1557.58C1444.13 1546.93 1438.69 1538.38 1430.7 1531.94C1422.71 1525.5 1412.05 1522.06 1398.73 1521.62C1383.42 1521.18 1370.54 1524.39 1360.1 1531.28C1349.67 1538.16 1341.12 1547.26 1334.46 1558.58C1327.8 1569.91 1322.7 1582.23 1319.14 1595.55C1315.59 1608.65 1313.04 1621.3 1311.49 1633.51L1310.15 1646.83C1309.04 1658.6 1309.38 1670.36 1311.15 1682.13C1312.93 1693.67 1316.37 1704.11 1321.48 1713.43C1326.8 1722.76 1334.02 1730.3 1343.12 1736.08C1352.45 1741.85 1364.1 1744.96 1378.09 1745.4C1395.85 1745.84 1412.16 1742.4 1427.04 1735.08C1442.14 1727.53 1455.68 1717.54 1467.67 1705.11L1509.63 1755.72C1499.63 1770.82 1486.87 1783.25 1471.33 1793.02C1456.01 1802.57 1439.47 1809.56 1421.71 1814C1403.95 1818.66 1386.3 1820.88 1368.76 1820.66ZM1798.82 1730.08L1872.75 1302.5H1966.99L1878.41 1814H1794.16L1798.82 1730.08ZM1593.69 1640.84L1594.36 1633.51C1597.24 1611.53 1602.35 1589.33 1609.67 1566.91C1617.22 1544.49 1627.43 1524.06 1640.31 1505.63C1653.41 1487.21 1669.5 1472.56 1688.6 1461.68C1707.69 1450.8 1730.33 1445.8 1756.53 1446.69C1778.95 1447.58 1797.49 1453.91 1812.14 1465.67C1826.8 1477.22 1838.12 1492.2 1846.11 1510.63C1854.32 1528.83 1859.87 1548.26 1862.76 1568.91C1865.87 1589.33 1867.09 1608.76 1866.42 1627.18L1864.76 1643.17C1861.21 1662.93 1855.21 1683.35 1846.78 1704.44C1838.56 1725.31 1827.79 1744.73 1814.47 1762.72C1801.38 1780.48 1785.72 1794.8 1767.52 1805.67C1749.54 1816.55 1729 1821.66 1705.91 1820.99C1681.71 1820.33 1661.85 1814.44 1646.3 1803.34C1630.99 1792.02 1619.11 1777.48 1610.67 1759.72C1602.24 1741.96 1596.8 1722.64 1594.36 1701.78C1591.91 1680.91 1591.69 1660.59 1593.69 1640.84ZM1688.6 1633.18L1687.93 1640.17C1687.04 1649.72 1686.49 1660.48 1686.27 1672.47C1686.27 1684.24 1687.49 1695.67 1689.93 1706.77C1692.59 1717.65 1697.37 1726.75 1704.25 1734.08C1711.35 1741.18 1721.56 1745.07 1734.88 1745.73C1751.76 1746.4 1766.3 1742.51 1778.51 1734.08C1790.72 1725.42 1800.49 1714.32 1807.81 1700.78C1815.36 1687.24 1820.36 1673.03 1822.8 1658.15L1829.13 1613.86C1830.24 1603.65 1830.24 1593.33 1829.13 1582.89C1828.02 1572.46 1825.46 1562.69 1821.47 1553.59C1817.69 1544.49 1811.92 1537.05 1804.15 1531.28C1796.6 1525.5 1786.72 1522.51 1774.51 1522.29C1759.64 1521.62 1746.98 1524.84 1736.55 1531.94C1726.34 1538.82 1718.01 1547.93 1711.57 1559.25C1705.14 1570.35 1700.03 1582.45 1696.26 1595.55C1692.7 1608.65 1690.15 1621.19 1688.6 1633.18ZM2139.64 1820.66C2114.99 1820.22 2092.79 1815.55 2073.03 1806.67C2053.28 1797.57 2036.74 1785.14 2023.42 1769.38C2010.32 1753.61 2000.66 1735.3 1994.44 1714.43C1988.23 1693.56 1986.01 1671.14 1987.78 1647.16L1989.12 1633.51C1991.78 1608.42 1997.89 1584.56 2007.43 1561.91C2016.98 1539.27 2029.74 1519.29 2045.73 1501.97C2061.71 1484.43 2080.58 1470.78 2102.34 1461.01C2124.32 1451.02 2148.74 1446.36 2175.6 1447.03C2200.69 1447.47 2222.11 1452.58 2239.87 1462.34C2257.63 1472.11 2271.95 1485.21 2282.83 1501.64C2293.71 1518.07 2301.14 1536.83 2305.14 1557.92C2309.14 1578.79 2309.91 1600.65 2307.47 1623.52L2302.14 1663.48H2023.75L2034.07 1599.54L2217.89 1599.88L2219.56 1591.55C2221.33 1579.34 2220.78 1568.02 2217.89 1557.58C2215.01 1546.93 2209.57 1538.38 2201.58 1531.94C2193.58 1525.5 2182.93 1522.06 2169.61 1521.62C2154.29 1521.18 2141.41 1524.39 2130.98 1531.28C2120.54 1538.16 2112 1547.26 2105.34 1558.58C2098.68 1569.91 2093.57 1582.23 2090.02 1595.55C2086.47 1608.65 2083.91 1621.3 2082.36 1633.51L2081.03 1646.83C2079.92 1658.6 2080.25 1670.36 2082.03 1682.13C2083.8 1693.67 2087.24 1704.11 2092.35 1713.43C2097.68 1722.76 2104.89 1730.3 2113.99 1736.08C2123.32 1741.85 2134.97 1744.96 2148.96 1745.4C2166.72 1745.84 2183.04 1742.4 2197.91 1735.08C2213.01 1727.53 2226.55 1717.54 2238.54 1705.11L2280.5 1755.72C2270.51 1770.82 2257.74 1783.25 2242.2 1793.02C2226.88 1802.57 2210.34 1809.56 2192.58 1814C2174.82 1818.66 2157.17 1820.88 2139.64 1820.66ZM2481.78 1453.69L2521.74 1562.58L2598.33 1453.69H2702.57L2573.03 1634.18L2645.95 1814H2550.71L2505.76 1698.78L2425.5 1814H2320.61L2455.81 1625.52L2385.88 1453.69H2481.78ZM81.8057 2086.02L110.15 1922.5H140.007L106.371 2116H79.6641L81.8057 2086.02ZM2.18848 2050.37L2.44043 2047.72C3.53223 2039.32 5.50586 2030.92 8.36133 2022.53C11.3008 2014.13 15.248 2006.44 20.2031 1999.47C25.2422 1992.5 31.373 1986.96 38.5957 1982.84C45.9023 1978.73 54.4688 1976.8 64.2949 1977.05C72.8613 1977.3 80 1979.53 85.7109 1983.72C91.4219 1987.92 95.873 1993.34 99.0645 1999.98C102.34 2006.61 104.565 2013.79 105.741 2021.52C106.917 2029.16 107.295 2036.63 106.875 2043.94L105.867 2052.51C104.523 2060.23 102.256 2068.04 99.0645 2075.94C95.873 2083.83 91.7158 2091.06 86.5928 2097.61C81.5537 2104.16 75.5068 2109.37 68.4521 2113.23C61.4814 2117.09 53.5029 2118.9 44.5166 2118.65C35.5303 2118.31 28.0977 2116.04 22.2188 2111.84C16.3398 2107.56 11.8047 2102.06 8.61328 2095.34C5.42188 2088.54 3.36426 2081.23 2.44043 2073.42C1.5166 2065.53 1.43262 2057.84 2.18848 2050.37ZM32.4229 2047.47L32.1709 2050.11C31.667 2054.48 31.457 2059.14 31.541 2064.1C31.625 2069.05 32.2969 2073.8 33.5566 2078.33C34.9004 2082.78 37.126 2086.48 40.2334 2089.42C43.4248 2092.36 47.876 2093.95 53.5869 2094.21C60.2217 2094.46 66.1006 2092.95 71.2236 2089.67C76.4307 2086.4 80.7559 2082.11 84.1992 2076.82C87.6426 2071.53 90.0781 2065.9 91.5059 2059.94L95.0332 2036.89C95.2852 2032.69 94.9912 2028.53 94.1514 2024.42C93.3955 2020.3 92.0098 2016.56 89.9941 2013.2C87.9785 2009.84 85.291 2007.11 81.9316 2005.01C78.6562 2002.83 74.667 2001.7 69.9639 2001.61C63.749 2001.36 58.374 2002.62 53.8389 2005.39C49.3877 2008.16 45.6924 2011.86 42.7529 2016.48C39.8975 2021.1 37.6299 2026.14 35.9502 2031.6C34.2705 2037.05 33.0947 2042.35 32.4229 2047.47ZM192.413 1979.69L168.729 2116H139.125L162.809 1979.69H192.413ZM166.966 1944.42C166.882 1939.55 168.478 1935.56 171.753 1932.45C175.028 1929.34 179.06 1927.75 183.847 1927.67C188.466 1927.58 192.413 1929.01 195.688 1931.95C199.048 1934.8 200.728 1938.62 200.728 1943.41C200.812 1948.28 199.174 1952.23 195.814 1955.25C192.539 1958.28 188.55 1959.83 183.847 1959.92C179.228 1960 175.28 1958.66 172.005 1955.88C168.729 1953.03 167.05 1949.21 166.966 1944.42ZM286.644 2086.02L314.988 1922.5H344.845L311.209 2116H284.502L286.644 2086.02ZM207.026 2050.37L207.278 2047.72C208.37 2039.32 210.344 2030.92 213.199 2022.53C216.139 2014.13 220.086 2006.44 225.041 1999.47C230.08 1992.5 236.211 1986.96 243.434 1982.84C250.74 1978.73 259.307 1976.8 269.133 1977.05C277.699 1977.3 284.838 1979.53 290.549 1983.72C296.26 1987.92 300.711 1993.34 303.902 1999.98C307.178 2006.61 309.403 2013.79 310.579 2021.52C311.755 2029.16 312.133 2036.63 311.713 2043.94L310.705 2052.51C309.361 2060.23 307.094 2068.04 303.902 2075.94C300.711 2083.83 296.554 2091.06 291.431 2097.61C286.392 2104.16 280.345 2109.37 273.29 2113.23C266.319 2117.09 258.341 2118.9 249.354 2118.65C240.368 2118.31 232.936 2116.04 227.057 2111.84C221.178 2107.56 216.643 2102.06 213.451 2095.34C210.26 2088.54 208.202 2081.23 207.278 2073.42C206.354 2065.53 206.271 2057.84 207.026 2050.37ZM237.261 2047.47L237.009 2050.11C236.505 2054.48 236.295 2059.14 236.379 2064.1C236.463 2069.05 237.135 2073.8 238.395 2078.33C239.738 2082.78 241.964 2086.48 245.071 2089.42C248.263 2092.36 252.714 2093.95 258.425 2094.21C265.06 2094.46 270.938 2092.95 276.062 2089.67C281.269 2086.4 285.594 2082.11 289.037 2076.82C292.48 2071.53 294.916 2065.9 296.344 2059.94L299.871 2036.89C300.123 2032.69 299.829 2028.53 298.989 2024.42C298.233 2020.3 296.848 2016.56 294.832 2013.2C292.816 2009.84 290.129 2007.11 286.77 2005.01C283.494 2002.83 279.505 2001.7 274.802 2001.61C268.587 2001.36 263.212 2002.62 258.677 2005.39C254.226 2008.16 250.53 2011.86 247.591 2016.48C244.735 2021.1 242.468 2026.14 240.788 2031.6C239.108 2037.05 237.933 2042.35 237.261 2047.47ZM389.566 2010.56L371.3 2116H341.569L365.253 1979.69H393.094L389.566 2010.56ZM379.11 2042.81L370.04 2042.93C371.048 2034.79 373.021 2026.77 375.961 2018.87C378.984 2010.89 382.974 2003.75 387.929 1997.46C392.884 1991.07 398.889 1986.03 405.943 1982.34C413.082 1978.64 421.312 1976.92 430.635 1977.17C438.025 1977.34 444.156 1978.81 449.027 1981.58C453.982 1984.35 457.804 1988.09 460.491 1992.79C463.263 1997.5 465.068 2002.87 465.908 2008.92C466.748 2014.97 466.79 2021.31 466.034 2027.94L451.421 2116H421.564L436.43 2027.56C436.934 2022.69 436.766 2018.33 435.926 2014.46C435.086 2010.52 433.238 2007.41 430.383 2005.14C427.527 2002.79 423.412 2001.57 418.037 2001.49C412.158 2001.32 406.993 2002.41 402.542 2004.76C398.091 2007.11 394.27 2010.35 391.078 2014.46C387.887 2018.49 385.283 2022.99 383.268 2027.94C381.336 2032.9 379.95 2037.85 379.11 2042.81ZM518.188 1922.5L515.291 1940.01L504.961 1987.25H485.435L493.119 1938.75L495.639 1922.5H518.188ZM595.412 1979.69L591.507 2001.87H516.929L520.708 1979.69H595.412ZM548.045 1946.31H577.649L555.1 2078.58C554.764 2081.52 554.764 2084.09 555.1 2086.27C555.52 2088.45 556.485 2090.17 557.997 2091.43C559.593 2092.61 562.028 2093.24 565.304 2093.32C567.067 2093.41 568.831 2093.32 570.595 2093.07C572.442 2092.82 574.29 2092.57 576.138 2092.32L573.996 2115.75C570.973 2116.67 567.865 2117.34 564.674 2117.76C561.566 2118.18 558.417 2118.35 555.226 2118.27C547.667 2118.18 541.578 2116.46 536.959 2113.1C532.34 2109.66 529.106 2105.08 527.259 2099.37C525.411 2093.66 524.823 2087.28 525.495 2080.22L548.045 1946.31ZM695.815 2116H666.085L690.902 1971C692.33 1960 695.731 1950.68 701.106 1943.03C706.481 1935.31 713.452 1929.43 722.019 1925.4C730.669 1921.37 740.495 1919.43 751.497 1919.6C758.048 1919.77 764.473 1920.65 770.771 1922.25C777.07 1923.76 783.327 1925.44 789.542 1927.29L782.613 1952.1C777.742 1950.17 772.745 1948.62 767.622 1947.44C762.583 1946.27 757.46 1945.68 752.253 1945.68C743.687 1945.51 736.632 1947.57 731.089 1951.85C725.546 1956.05 722.103 1962.39 720.759 1970.88L695.815 2116ZM746.206 1979.69L742.175 2001.87H665.707L669.612 1979.69H746.206ZM795.337 1979.69L771.653 2116H741.923L765.606 1979.69H795.337ZM851.9 2010.56L833.634 2116H803.903L827.587 1979.69H855.428L851.9 2010.56ZM841.444 2042.81L832.374 2042.93C833.382 2034.79 835.355 2026.77 838.295 2018.87C841.318 2010.89 845.308 2003.75 850.263 1997.46C855.218 1991.07 861.223 1986.03 868.277 1982.34C875.416 1978.64 883.646 1976.92 892.969 1977.17C900.359 1977.34 906.49 1978.81 911.361 1981.58C916.316 1984.35 920.138 1988.09 922.825 1992.79C925.597 1997.5 927.402 2002.87 928.242 2008.92C929.082 2014.97 929.124 2021.31 928.368 2027.94L913.755 2116H883.898L898.764 2027.56C899.268 2022.69 899.1 2018.33 898.26 2014.46C897.42 2010.52 895.572 2007.41 892.717 2005.14C889.861 2002.79 885.746 2001.57 880.371 2001.49C874.492 2001.32 869.327 2002.41 864.876 2004.76C860.425 2007.11 856.604 2010.35 853.412 2014.46C850.221 2018.49 847.617 2022.99 845.602 2027.94C843.67 2032.9 842.284 2037.85 841.444 2042.81ZM1029.4 2086.02L1057.75 1922.5H1087.6L1053.97 2116H1027.26L1029.4 2086.02ZM949.784 2050.37L950.036 2047.72C951.128 2039.32 953.102 2030.92 955.957 2022.53C958.896 2014.13 962.844 2006.44 967.799 1999.47C972.838 1992.5 978.969 1986.96 986.191 1982.84C993.498 1978.73 1002.06 1976.8 1011.89 1977.05C1020.46 1977.3 1027.6 1979.53 1033.31 1983.72C1039.02 1987.92 1043.47 1993.34 1046.66 1999.98C1049.94 2006.61 1052.16 2013.79 1053.34 2021.52C1054.51 2029.16 1054.89 2036.63 1054.47 2043.94L1053.46 2052.51C1052.12 2060.23 1049.85 2068.04 1046.66 2075.94C1043.47 2083.83 1039.31 2091.06 1034.19 2097.61C1029.15 2104.16 1023.1 2109.37 1016.05 2113.23C1009.08 2117.09 1001.1 2118.9 992.112 2118.65C983.126 2118.31 975.693 2116.04 969.814 2111.84C963.936 2107.56 959.4 2102.06 956.209 2095.34C953.018 2088.54 950.96 2081.23 950.036 2073.42C949.112 2065.53 949.028 2057.84 949.784 2050.37ZM980.019 2047.47L979.767 2050.11C979.263 2054.48 979.053 2059.14 979.137 2064.1C979.221 2069.05 979.893 2073.8 981.152 2078.33C982.496 2082.78 984.722 2086.48 987.829 2089.42C991.021 2092.36 995.472 2093.95 1001.18 2094.21C1007.82 2094.46 1013.7 2092.95 1018.82 2089.67C1024.03 2086.4 1028.35 2082.11 1031.79 2076.82C1035.24 2071.53 1037.67 2065.9 1039.1 2059.94L1042.63 2036.89C1042.88 2032.69 1042.59 2028.53 1041.75 2024.42C1040.99 2020.3 1039.61 2016.56 1037.59 2013.2C1035.57 2009.84 1032.89 2007.11 1029.53 2005.01C1026.25 2002.83 1022.26 2001.7 1017.56 2001.61C1011.34 2001.36 1005.97 2002.62 1001.43 2005.39C996.983 2008.16 993.288 2011.86 990.349 2016.48C987.493 2021.1 985.226 2026.14 983.546 2031.6C981.866 2037.05 980.69 2042.35 980.019 2047.47ZM1227.81 2088.66L1238.14 2023.28C1238.65 2018.91 1238.35 2014.97 1237.26 2011.44C1236.17 2007.91 1234.16 2005.14 1231.22 2003.12C1228.36 2001.03 1224.58 1999.93 1219.88 1999.85C1215.68 1999.77 1211.73 2000.48 1208.04 2001.99C1204.34 2003.42 1201.19 2005.56 1198.59 2008.42C1196.07 2011.27 1194.39 2014.76 1193.55 2018.87L1163.94 2019C1164.45 2011.86 1166.55 2005.64 1170.24 2000.35C1174.02 1994.98 1178.77 1990.57 1184.48 1987.13C1190.27 1983.6 1196.49 1981.04 1203.12 1979.44C1209.84 1977.76 1216.39 1976.96 1222.78 1977.05C1232.01 1977.22 1240.2 1979.19 1247.34 1982.97C1254.48 1986.75 1259.9 1992.08 1263.59 1998.97C1267.37 2005.85 1268.8 2014.17 1267.88 2023.91L1257.92 2084.63C1257.17 2089.42 1256.62 2094.33 1256.29 2099.37C1256.03 2104.33 1256.71 2109.11 1258.3 2113.73L1258.05 2116L1228.7 2116.13C1227.44 2111.67 1226.81 2107.14 1226.81 2102.52C1226.81 2097.82 1227.14 2093.2 1227.81 2088.66ZM1241.55 2033.11L1238.52 2051.88L1218.87 2051.75C1214.84 2051.75 1210.68 2052.13 1206.4 2052.89C1202.2 2053.64 1198.25 2054.94 1194.56 2056.79C1190.86 2058.64 1187.75 2061.16 1185.23 2064.35C1182.71 2067.46 1181.16 2071.36 1180.57 2076.07C1180.15 2079.84 1180.57 2083.12 1181.83 2085.89C1183.18 2088.58 1185.19 2090.72 1187.88 2092.32C1190.57 2093.91 1193.76 2094.75 1197.45 2094.84C1202.41 2094.92 1207.28 2093.95 1212.07 2091.94C1216.94 2089.92 1221.14 2087.07 1224.67 2083.37C1228.28 2079.59 1230.75 2075.27 1232.1 2070.4L1240.03 2084C1238.19 2089.12 1235.58 2093.83 1232.22 2098.11C1228.95 2102.39 1225.13 2106.09 1220.76 2109.2C1216.39 2112.3 1211.61 2114.7 1206.4 2116.38C1201.28 2118.06 1195.98 2118.86 1190.53 2118.77C1182.97 2118.6 1176.08 2116.88 1169.87 2113.61C1163.65 2110.25 1158.74 2105.59 1155.13 2099.62C1151.51 2093.66 1149.92 2086.77 1150.34 2078.96C1150.76 2070.14 1152.98 2062.8 1157.02 2056.92C1161.13 2050.95 1166.38 2046.25 1172.76 2042.81C1179.23 2039.28 1186.28 2036.76 1193.93 2035.25C1201.57 2033.74 1209.13 2032.98 1216.6 2032.98L1241.55 2033.11ZM1330.86 2010.56L1312.6 2116H1282.87L1306.55 1979.69H1334.39L1330.86 2010.56ZM1320.41 2042.81L1311.34 2042.93C1312.34 2034.79 1314.32 2026.77 1317.26 2018.87C1320.28 2010.89 1324.27 2003.75 1329.23 1997.46C1334.18 1991.07 1340.19 1986.03 1347.24 1982.34C1354.38 1978.64 1362.61 1976.92 1371.93 1977.17C1379.32 1977.34 1385.45 1978.81 1390.32 1981.58C1395.28 1984.35 1399.1 1988.09 1401.79 1992.79C1404.56 1997.5 1406.37 2002.87 1407.21 2008.92C1408.04 2014.97 1408.09 2021.31 1407.33 2027.94L1392.72 2116H1362.86L1377.73 2027.56C1378.23 2022.69 1378.06 2018.33 1377.22 2014.46C1376.38 2010.52 1374.54 2007.41 1371.68 2005.14C1368.82 2002.79 1364.71 2001.57 1359.33 2001.49C1353.46 2001.32 1348.29 2002.41 1343.84 2004.76C1339.39 2007.11 1335.57 2010.35 1332.38 2014.46C1329.18 2018.49 1326.58 2022.99 1324.56 2027.94C1322.63 2032.9 1321.25 2037.85 1320.41 2042.81ZM1463.77 2099.62L1519.95 1979.69H1552.71L1472.84 2136.91C1470.57 2141.62 1467.97 2146.07 1465.03 2150.27C1462.17 2154.46 1458.9 2158.16 1455.2 2161.35C1451.51 2164.54 1447.35 2167.02 1442.73 2168.78C1438.2 2170.63 1433.07 2171.56 1427.36 2171.56C1424.76 2171.47 1422.2 2171.18 1419.68 2170.67C1417.07 2170.25 1414.51 2169.75 1411.99 2169.16L1414.13 2145.86C1415.06 2145.94 1415.98 2146.02 1416.91 2146.11C1417.83 2146.28 1418.75 2146.36 1419.68 2146.36C1424.46 2146.53 1428.66 2145.9 1432.27 2144.47C1435.89 2143.13 1439.04 2141.03 1441.72 2138.17C1444.49 2135.32 1446.93 2131.83 1449.03 2127.72L1463.77 2099.62ZM1464.02 1979.69L1477.88 2083.25L1477.63 2114.24L1456.97 2119.53L1433.03 1979.69H1464.02ZM1657.39 2007.66L1629.43 2168.41H1599.7L1632.45 1979.69H1659.79L1657.39 2007.66ZM1736.51 2045.83L1736.26 2048.48C1735.25 2056.71 1733.27 2065.02 1730.33 2073.42C1727.48 2081.73 1723.57 2089.38 1718.62 2096.35C1713.75 2103.23 1707.74 2108.74 1700.6 2112.85C1693.47 2116.97 1685.07 2118.9 1675.41 2118.65C1666.93 2118.48 1659.79 2116.46 1653.99 2112.6C1648.2 2108.65 1643.58 2103.53 1640.14 2097.23C1636.69 2090.93 1634.26 2084.04 1632.83 2076.57C1631.49 2069.01 1630.98 2061.54 1631.32 2054.15L1632.58 2044.07C1633.92 2036.09 1636.19 2028.11 1639.38 2020.13C1642.66 2012.15 1646.85 2004.89 1651.98 1998.34C1657.1 1991.7 1663.19 1986.45 1670.24 1982.59C1677.3 1978.73 1685.4 1976.92 1694.56 1977.17C1703.88 1977.43 1711.48 1979.65 1717.36 1983.85C1723.24 1988.05 1727.69 1993.51 1730.71 2000.23C1733.82 2006.95 1735.75 2014.29 1736.51 2022.27C1737.35 2030.25 1737.35 2038.1 1736.51 2045.83ZM1706.53 2048.35L1706.9 2045.58C1707.32 2041.3 1707.45 2036.63 1707.28 2031.6C1707.2 2026.56 1706.48 2021.81 1705.14 2017.36C1703.8 2012.83 1701.49 2009.09 1698.21 2006.15C1695.02 2003.21 1690.57 2001.66 1684.86 2001.49C1679.65 2001.24 1674.95 2002.08 1670.75 2004.01C1666.55 2005.85 1662.85 2008.46 1659.66 2011.82C1656.47 2015.18 1653.78 2019 1651.6 2023.28C1649.5 2027.56 1647.99 2032.02 1647.06 2036.63L1643.16 2061.33C1642.91 2066.87 1643.66 2072.16 1645.43 2077.2C1647.27 2082.15 1650.13 2086.23 1653.99 2089.42C1657.94 2092.61 1662.94 2094.29 1668.98 2094.46C1675.2 2094.63 1680.53 2093.32 1684.98 2090.55C1689.43 2087.78 1693.13 2084.09 1696.07 2079.47C1699.01 2074.76 1701.32 2069.68 1703 2064.22C1704.76 2058.68 1705.94 2053.39 1706.53 2048.35ZM1755.78 2050.11L1756.16 2047.22C1757.17 2037.81 1759.48 2028.87 1763.09 2020.38C1766.7 2011.9 1771.49 2004.38 1777.45 1997.83C1783.5 1991.2 1790.59 1986.03 1798.74 1982.34C1806.97 1978.64 1816.12 1976.92 1826.2 1977.17C1835.95 1977.34 1844.3 1979.36 1851.27 1983.22C1858.33 1987.08 1864.04 1992.25 1868.41 1998.72C1872.86 2005.1 1875.96 2012.41 1877.73 2020.64C1879.49 2028.78 1879.95 2037.31 1879.11 2046.21L1878.86 2049.11C1877.77 2058.51 1875.38 2067.42 1871.68 2075.81C1868.07 2084.21 1863.24 2091.69 1857.19 2098.24C1851.23 2104.7 1844.13 2109.79 1835.9 2113.48C1827.76 2117.09 1818.69 2118.77 1808.69 2118.52C1799.03 2118.35 1790.68 2116.38 1783.62 2112.6C1776.65 2108.74 1770.94 2103.61 1766.49 2097.23C1762.12 2090.85 1759.06 2083.62 1757.29 2075.56C1755.53 2067.42 1755.03 2058.93 1755.78 2050.11ZM1785.64 2047.22L1785.39 2050.11C1784.97 2054.73 1784.92 2059.6 1785.26 2064.73C1785.6 2069.85 1786.6 2074.64 1788.28 2079.09C1789.96 2083.54 1792.57 2087.19 1796.09 2090.05C1799.62 2092.9 1804.33 2094.42 1810.2 2094.58C1816.42 2094.75 1821.84 2093.49 1826.46 2090.8C1831.07 2088.12 1834.94 2084.51 1838.04 2079.97C1841.15 2075.44 1843.63 2070.48 1845.48 2065.11C1847.33 2059.65 1848.54 2054.31 1849.13 2049.11L1849.38 2046.21C1849.89 2041.67 1849.97 2036.84 1849.63 2031.72C1849.3 2026.51 1848.29 2021.64 1846.61 2017.11C1844.93 2012.49 1842.33 2008.75 1838.8 2005.9C1835.27 2002.96 1830.57 2001.4 1824.69 2001.24C1818.39 2001.07 1812.93 2002.37 1808.31 2005.14C1803.7 2007.83 1799.83 2011.48 1796.72 2016.1C1793.62 2020.72 1791.14 2025.76 1789.29 2031.22C1787.53 2036.68 1786.31 2042.01 1785.64 2047.22ZM1955.2 1922.5L1921.57 2116H1891.84L1925.47 1922.5H1955.2ZM2028.52 1979.69L1960.12 2044.95L1921.44 2079.34L1917.91 2051.63L1946.13 2022.15L1990.48 1979.69H2028.52ZM1975.23 2116L1942.73 2050.74L1963.9 2030.59L2007.86 2116H1975.23ZM2080.93 2118.52C2071.61 2118.35 2063.33 2116.55 2056.11 2113.1C2048.97 2109.58 2043.05 2104.83 2038.35 2098.87C2033.64 2092.82 2030.24 2085.89 2028.14 2078.08C2026.04 2070.19 2025.33 2061.79 2026 2052.89L2026.51 2047.72C2027.43 2038.57 2029.66 2029.75 2033.18 2021.27C2036.71 2012.7 2041.41 2005.1 2047.29 1998.46C2053.25 1991.75 2060.27 1986.45 2068.33 1982.59C2076.39 1978.73 2085.38 1976.92 2095.29 1977.17C2104.78 1977.34 2112.8 1979.32 2119.35 1983.09C2125.9 1986.87 2131.11 1991.91 2134.97 1998.21C2138.83 2004.43 2141.4 2011.48 2142.66 2019.38C2144 2027.27 2144.21 2035.46 2143.29 2043.94L2141.52 2056.92H2039.23L2042.76 2035.12L2114.94 2035.25L2115.45 2032.6C2116.2 2027.31 2115.91 2022.32 2114.56 2017.61C2113.3 2012.91 2110.95 2009.05 2107.51 2006.02C2104.07 2003 2099.45 2001.4 2093.65 2001.24C2087.35 2001.07 2081.94 2002.37 2077.4 2005.14C2072.95 2007.91 2069.25 2011.65 2066.31 2016.35C2063.38 2021.06 2061.07 2026.18 2059.39 2031.72C2057.79 2037.18 2056.66 2042.51 2055.98 2047.72L2055.48 2052.76C2054.98 2057.71 2055.1 2062.63 2055.86 2067.5C2056.61 2072.37 2058.08 2076.82 2060.27 2080.85C2062.45 2084.8 2065.47 2088.03 2069.34 2090.55C2073.2 2092.99 2077.99 2094.29 2083.7 2094.46C2090.84 2094.63 2097.3 2093.16 2103.1 2090.05C2108.98 2086.86 2114.31 2082.74 2119.1 2077.7L2133.71 2093.2C2129.85 2098.99 2125.06 2103.78 2119.35 2107.56C2113.72 2111.34 2107.59 2114.15 2100.96 2116C2094.41 2117.76 2087.73 2118.6 2080.93 2118.52ZM2201.87 2009.17L2183.35 2116H2153.62L2177.3 1979.69H2205.27L2201.87 2009.17ZM2191.66 2042.81H2181.83C2182.84 2034.49 2184.77 2026.39 2187.63 2018.49C2190.57 2010.52 2194.52 2003.38 2199.47 1997.08C2204.43 1990.78 2210.47 1985.82 2217.61 1982.21C2224.75 1978.6 2233.02 1976.92 2242.43 1977.17C2249.4 1977.34 2255.24 1978.73 2259.94 1981.33C2264.73 1983.93 2268.55 1987.46 2271.4 1991.91C2274.26 1996.36 2276.15 2001.45 2277.07 2007.16C2278 2012.78 2278.17 2018.79 2277.58 2025.17L2262.46 2116H2232.73L2247.59 2027.69C2248.18 2022.82 2248.01 2018.45 2247.09 2014.59C2246.17 2010.64 2244.24 2007.49 2241.3 2005.14C2238.44 2002.79 2234.33 2001.53 2228.95 2001.36C2222.99 2001.19 2217.82 2002.29 2213.46 2004.64C2209.09 2006.99 2205.43 2010.18 2202.5 2014.21C2199.64 2018.24 2197.29 2022.78 2195.44 2027.82C2193.68 2032.77 2192.42 2037.77 2191.66 2042.81ZM2275.06 2034.75L2260.7 2037.89C2261.62 2030 2263.55 2022.4 2266.49 2015.09C2269.51 2007.7 2273.5 2001.15 2278.46 1995.44C2283.5 1989.65 2289.46 1985.11 2296.35 1981.83C2303.23 1978.48 2311.04 1976.88 2319.78 1977.05C2327.17 1977.22 2333.38 1978.69 2338.42 1981.46C2343.46 1984.14 2347.41 1987.84 2350.27 1992.54C2353.21 1997.25 2355.14 2002.62 2356.06 2008.67C2356.98 2014.63 2357.07 2021.01 2356.31 2027.82L2341.57 2116H2311.84L2326.71 2027.56C2327.3 2022.61 2327.13 2018.2 2326.2 2014.34C2325.36 2010.39 2323.52 2007.28 2320.66 2005.01C2317.81 2002.75 2313.65 2001.57 2308.19 2001.49C2303.32 2001.32 2298.95 2002.16 2295.09 2004.01C2291.31 2005.77 2288.03 2008.25 2285.26 2011.44C2282.57 2014.55 2280.39 2018.12 2278.71 2022.15C2277.03 2026.18 2275.81 2030.38 2275.06 2034.75ZM2378.11 2050.11L2378.48 2047.22C2379.49 2037.81 2381.8 2028.87 2385.41 2020.38C2389.02 2011.9 2393.81 2004.38 2399.77 1997.83C2405.82 1991.2 2412.92 1986.03 2421.06 1982.34C2429.29 1978.64 2438.45 1976.92 2448.53 1977.17C2458.27 1977.34 2466.63 1979.36 2473.6 1983.22C2480.65 1987.08 2486.36 1992.25 2490.73 1998.72C2495.18 2005.1 2498.29 2012.41 2500.05 2020.64C2501.82 2028.78 2502.28 2037.31 2501.44 2046.21L2501.19 2049.11C2500.09 2058.51 2497.7 2067.42 2494 2075.81C2490.39 2084.21 2485.56 2091.69 2479.52 2098.24C2473.55 2104.7 2466.46 2109.79 2458.23 2113.48C2450.08 2117.09 2441.01 2118.77 2431.02 2118.52C2421.36 2118.35 2413 2116.38 2405.95 2112.6C2398.98 2108.74 2393.27 2103.61 2388.81 2097.23C2384.45 2090.85 2381.38 2083.62 2379.62 2075.56C2377.85 2067.42 2377.35 2058.93 2378.11 2050.11ZM2407.96 2047.22L2407.71 2050.11C2407.29 2054.73 2407.25 2059.6 2407.58 2064.73C2407.92 2069.85 2408.93 2074.64 2410.61 2079.09C2412.29 2083.54 2414.89 2087.19 2418.42 2090.05C2421.95 2092.9 2426.65 2094.42 2432.53 2094.58C2438.74 2094.75 2444.16 2093.49 2448.78 2090.8C2453.4 2088.12 2457.26 2084.51 2460.37 2079.97C2463.48 2075.44 2465.95 2070.48 2467.8 2065.11C2469.65 2059.65 2470.87 2054.31 2471.46 2049.11L2471.71 2046.21C2472.21 2041.67 2472.29 2036.84 2471.96 2031.72C2471.62 2026.51 2470.62 2021.64 2468.94 2017.11C2467.26 2012.49 2464.65 2008.75 2461.12 2005.9C2457.6 2002.96 2452.89 2001.4 2447.02 2001.24C2440.72 2001.07 2435.26 2002.37 2430.64 2005.14C2426.02 2007.83 2422.16 2011.48 2419.05 2016.1C2415.94 2020.72 2413.46 2025.76 2411.62 2031.22C2409.85 2036.68 2408.63 2042.01 2407.96 2047.22ZM2561.65 2010.56L2543.39 2116H2513.66L2537.34 1979.69H2565.18L2561.65 2010.56ZM2551.2 2042.81L2542.13 2042.93C2543.14 2034.79 2545.11 2026.77 2548.05 2018.87C2551.07 2010.89 2555.06 2003.75 2560.02 1997.46C2564.97 1991.07 2570.98 1986.03 2578.03 1982.34C2585.17 1978.64 2593.4 1976.92 2602.72 1977.17C2610.11 1977.34 2616.24 1978.81 2621.12 1981.58C2626.07 1984.35 2629.89 1988.09 2632.58 1992.79C2635.35 1997.5 2637.16 2002.87 2638 2008.92C2638.84 2014.97 2638.88 2021.31 2638.12 2027.94L2623.51 2116H2593.65L2608.52 2027.56C2609.02 2022.69 2608.85 2018.33 2608.01 2014.46C2607.17 2010.52 2605.33 2007.41 2602.47 2005.14C2599.62 2002.79 2595.5 2001.57 2590.12 2001.49C2584.25 2001.32 2579.08 2002.41 2574.63 2004.76C2570.18 2007.11 2566.36 2010.35 2563.17 2014.46C2559.97 2018.49 2557.37 2022.99 2555.36 2027.94C2553.42 2032.9 2552.04 2037.85 2551.2 2042.81ZM2657.27 2101.39C2657.19 2096.43 2658.82 2092.32 2662.18 2089.04C2665.54 2085.77 2669.66 2084.09 2674.53 2084C2679.4 2083.92 2683.47 2085.43 2686.75 2088.54C2690.11 2091.56 2691.79 2095.51 2691.79 2100.38C2691.87 2105.33 2690.23 2109.45 2686.88 2112.72C2683.52 2115.92 2679.36 2117.55 2674.4 2117.64C2669.7 2117.72 2665.67 2116.25 2662.31 2113.23C2658.95 2110.21 2657.27 2106.26 2657.27 2101.39ZM2726.81 2101.39C2726.73 2096.43 2728.36 2092.32 2731.72 2089.04C2735.08 2085.77 2739.2 2084.09 2744.07 2084C2748.94 2083.92 2753.01 2085.43 2756.29 2088.54C2759.65 2091.56 2761.33 2095.51 2761.33 2100.38C2761.41 2105.33 2759.77 2109.45 2756.41 2112.72C2753.05 2115.92 2748.9 2117.55 2743.94 2117.64C2739.24 2117.72 2735.21 2116.25 2731.85 2113.23C2728.49 2110.21 2726.81 2106.26 2726.81 2101.39ZM2796.35 2101.39C2796.26 2096.43 2797.9 2092.32 2801.26 2089.04C2804.62 2085.77 2808.74 2084.09 2813.61 2084C2818.48 2083.92 2822.55 2085.43 2825.83 2088.54C2829.19 2091.56 2830.87 2095.51 2830.87 2100.38C2830.95 2105.33 2829.31 2109.45 2825.95 2112.72C2822.59 2115.92 2818.44 2117.55 2813.48 2117.64C2808.78 2117.72 2804.75 2116.25 2801.39 2113.23C2798.03 2110.21 2796.35 2106.26 2796.35 2101.39Z" fill="#F1F1F1"/>
</svg>
